<svg width="300" height="352" viewBox="0 0 300 352" fill="none" xmlns="http://www.w3.org/2000/svg">
<path fill-rule="evenodd" clip-rule="evenodd" d="M180.747 16.3523V18.5256H191.017V23H193.531V18.5256H196.514V16.1818H193.531V1.18181H191.912H191.017H190.335L180.747 16.3523ZM191.017 4.54829H190.847L183.602 16.0114V16.1818H191.017V4.54829ZM203.521 21.9879C204.651 22.8615 206.018 23.2983 207.623 23.2983C209.228 23.2983 210.595 22.8615 211.725 21.9879C212.854 21.1072 213.717 19.8324 214.313 18.1633C214.91 16.4872 215.208 14.4631 215.208 12.0909C215.208 9.73295 214.906 7.71945 214.303 6.05042C213.706 4.37428 212.84 3.09587 211.703 2.21519C210.574 1.32741 209.214 0.883514 207.623 0.883514C206.032 0.883514 204.669 1.32741 203.532 2.21519C202.403 3.09587 201.536 4.37428 200.933 6.05042C200.336 7.71945 200.038 9.73295 200.038 12.0909C200.038 14.4631 200.336 16.4872 200.933 18.1633C201.529 19.8324 202.392 21.1072 203.521 21.9879ZM211.33 18.6534C210.45 20.1875 209.214 20.9545 207.623 20.9545C206.565 20.9545 205.659 20.6101 204.906 19.9212C204.161 19.2322 203.589 18.2273 203.191 16.9062C202.794 15.5852 202.595 13.9801 202.595 12.0909C202.595 9.2571 203.039 7.06604 203.926 5.51775C204.814 3.96235 206.046 3.18465 207.623 3.18465C208.674 3.18465 209.573 3.53266 210.318 4.22868C211.071 4.92471 211.646 5.93678 212.044 7.26491C212.449 8.59303 212.651 10.2017 212.651 12.0909C212.651 14.9318 212.211 17.1193 211.33 18.6534ZM222.772 29.0085C223.646 29.321 224.69 29.4773 225.904 29.4773C227.211 29.4773 228.397 29.2677 229.463 28.8487C230.535 28.4368 231.387 27.7869 232.019 26.8991C232.659 26.0185 232.978 24.875 232.978 23.4687V6.63635H230.549V9.23579H230.294C230.109 8.9517 229.846 8.58948 229.505 8.14914C229.171 7.7017 228.688 7.30397 228.056 6.95596C227.431 6.60085 226.586 6.42329 225.521 6.42329C224.143 6.42329 222.928 6.76775 221.877 7.45667C220.826 8.13849 220.006 9.10439 219.416 10.3544C218.827 11.5973 218.532 13.0568 218.532 14.7329C218.532 16.4375 218.834 17.8864 219.438 19.0795C220.048 20.2727 220.876 21.1818 221.92 21.8068C222.971 22.4318 224.157 22.7443 225.478 22.7443C226.544 22.7443 227.389 22.5774 228.014 22.2436C228.646 21.9027 229.129 21.5156 229.463 21.0824C229.803 20.642 230.066 20.2727 230.251 19.9744H230.464V23.2983C230.464 24.6619 230.034 25.6633 229.175 26.3026C228.316 26.9418 227.225 27.2614 225.904 27.2614C224.917 27.2614 224.118 27.1158 223.507 26.8246C222.904 26.5405 222.428 26.2031 222.08 25.8125C221.732 25.429 221.444 25.0881 221.217 24.7898L219.214 26.196C219.555 26.7642 220.013 27.2969 220.588 27.794C221.171 28.2983 221.899 28.7031 222.772 29.0085ZM228.376 19.7933C227.68 20.255 226.828 20.4858 225.819 20.4858C224.768 20.4858 223.887 20.2408 223.177 19.7507C222.474 19.2535 221.941 18.5717 221.579 17.7052C221.224 16.8317 221.046 15.8267 221.046 14.6903C221.046 13.5824 221.22 12.5739 221.568 11.6648C221.923 10.7557 222.453 10.0312 223.156 9.49147C223.866 8.9517 224.754 8.68181 225.819 8.68181C226.842 8.68181 227.701 8.93749 228.397 9.44885C229.093 9.96022 229.619 10.6669 229.974 11.5689C230.329 12.4709 230.507 13.5114 230.507 14.6903C230.507 15.8977 230.325 16.9347 229.963 17.8011C229.601 18.6676 229.072 19.3317 228.376 19.7933ZM149.519 214H0V211H148.252L65 76H235L151.748 211H300V214H150.481L235 351.054H65.0001L149.519 214ZM73.5098 82.219L115.479 149.75H122.62L122.651 149.701L124.044 149.75H131.819L134.235 148.355L136.652 149.75H145.098L146.202 148.93L148.097 149.75H152.453L153.583 147.824L158.583 147.86L159.657 149.75H161.598L165.194 147L169.81 148.92L169.918 149.75H172.058L174.184 148.073L178.389 149.75H184.221L226.19 82.219H73.5098ZM226.49 344.835L150.15 222L73.8099 344.835H226.49Z" fill="white"/>
</svg>
