<svg width="300" height="378" viewBox="0 0 300 378" fill="none" xmlns="http://www.w3.org/2000/svg">
<path fill-rule="evenodd" clip-rule="evenodd" d="M160 0H140V20H160V0ZM155 5H145V15H155V5ZM150.142 29L136 43.1421L150.142 57.2843L164.284 43.1421L150.142 29ZM150.142 36.0711L143.071 43.1421L150.142 50.2132L157.213 43.1421L150.142 36.0711ZM140 66H160V86H140V66ZM145 71H155V81H145V71ZM148.252 237L65 102H235L151.748 237H300V240H150.481L235 377.054H65.0001L149.519 240H0V237H148.252ZM91.2414 136.75L73.5098 108.219H226.19L208.458 136.75H91.2414ZM201.112 330L150.15 248L99.1883 330H201.112ZM180.747 44.5256V42.3523L190.335 27.1818H191.017H191.912H193.531V42.1818H196.514V44.5256H193.531V49H191.017V44.5256H180.747ZM190.847 30.5483H191.017V42.1818H183.602V42.0114L190.847 30.5483ZM207.623 49.2983C206.018 49.2983 204.651 48.8615 203.521 47.9879C202.392 47.1072 201.529 45.8324 200.933 44.1634C200.336 42.4872 200.038 40.4631 200.038 38.0909C200.038 35.733 200.336 33.7195 200.933 32.0504C201.536 30.3743 202.403 29.0959 203.532 28.2152C204.669 27.3274 206.032 26.8835 207.623 26.8835C209.214 26.8835 210.574 27.3274 211.703 28.2152C212.84 29.0959 213.706 30.3743 214.303 32.0504C214.906 33.7195 215.208 35.733 215.208 38.0909C215.208 40.4631 214.91 42.4872 214.313 44.1634C213.717 45.8324 212.854 47.1072 211.725 47.9879C210.595 48.8615 209.228 49.2983 207.623 49.2983ZM207.623 46.9545C209.214 46.9545 210.45 46.1875 211.33 44.6534C212.211 43.1193 212.651 40.9318 212.651 38.0909C212.651 36.2017 212.449 34.593 212.044 33.2649C211.646 31.9368 211.071 30.9247 210.318 30.2287C209.573 29.5327 208.674 29.1847 207.623 29.1847C206.046 29.1847 204.814 29.9624 203.926 31.5178C203.039 33.0661 202.595 35.2571 202.595 38.0909C202.595 39.9801 202.794 41.5852 203.191 42.9062C203.589 44.2273 204.161 45.2322 204.906 45.9212C205.659 46.6101 206.565 46.9545 207.623 46.9545ZM225.904 55.4773C224.69 55.4773 223.646 55.321 222.772 55.0085C221.899 54.7031 221.171 54.2983 220.588 53.794C220.013 53.2969 219.555 52.7642 219.214 52.196L221.217 50.7898C221.444 51.0881 221.732 51.429 222.08 51.8125C222.428 52.2031 222.904 52.5405 223.507 52.8246C224.118 53.1158 224.917 53.2614 225.904 53.2614C227.225 53.2614 228.316 52.9418 229.175 52.3026C230.034 51.6634 230.464 50.6619 230.464 49.2983V45.9744H230.251C230.066 46.2727 229.803 46.642 229.463 47.0824C229.129 47.5156 228.646 47.9027 228.014 48.2436C227.389 48.5774 226.544 48.7443 225.478 48.7443C224.157 48.7443 222.971 48.4318 221.92 47.8068C220.876 47.1818 220.048 46.2727 219.438 45.0795C218.834 43.8864 218.532 42.4375 218.532 40.733C218.532 39.0568 218.827 37.5973 219.416 36.3544C220.006 35.1044 220.826 34.1385 221.877 33.4567C222.928 32.7678 224.143 32.4233 225.521 32.4233C226.586 32.4233 227.431 32.6009 228.056 32.956C228.688 33.304 229.171 33.7017 229.505 34.1491C229.846 34.5895 230.109 34.9517 230.294 35.2358H230.549V32.6364H232.978V49.4688C232.978 50.875 232.659 52.0185 232.019 52.8991C231.387 53.7869 230.535 54.4368 229.463 54.8487C228.397 55.2678 227.211 55.4773 225.904 55.4773ZM225.819 46.4858C226.828 46.4858 227.68 46.255 228.376 45.7933C229.072 45.3317 229.601 44.6676 229.963 43.8011C230.325 42.9347 230.507 41.8977 230.507 40.6903C230.507 39.5114 230.329 38.4709 229.974 37.5689C229.619 36.6669 229.093 35.9602 228.397 35.4489C227.701 34.9375 226.842 34.6818 225.819 34.6818C224.754 34.6818 223.866 34.9517 223.156 35.4915C222.453 36.0312 221.923 36.7557 221.568 37.6648C221.22 38.5739 221.046 39.5824 221.046 40.6903C221.046 41.8267 221.224 42.8317 221.579 43.7053C221.941 44.5717 222.474 45.2536 223.177 45.7507C223.887 46.2408 224.768 46.4858 225.819 46.4858Z" fill="white"/>
</svg>
