<svg width="300" height="351" viewBox="0 0 300 351" fill="none" xmlns="http://www.w3.org/2000/svg">
<path fill-rule="evenodd" clip-rule="evenodd" d="M180.747 17.642V15.4688L190.335 0.298295H191.017H191.912H193.531V15.2983H196.514V17.642H193.531V22.1165H191.017V17.642H180.747ZM190.847 3.66477H191.017V15.2983H183.602V15.1278L190.847 3.66477ZM207.623 22.4148C206.018 22.4148 204.651 21.978 203.521 21.1044C202.392 20.2237 201.529 18.9489 200.933 17.2798C200.336 15.6037 200.038 13.5795 200.038 11.2074C200.038 8.84943 200.336 6.83594 200.933 5.1669C201.536 3.49077 202.403 2.21236 203.532 1.33168C204.669 0.443892 206.032 0 207.623 0C209.214 0 210.574 0.443892 211.703 1.33168C212.84 2.21236 213.706 3.49077 214.303 5.1669C214.906 6.83594 215.208 8.84943 215.208 11.2074C215.208 13.5795 214.91 15.6037 214.313 17.2798C213.717 18.9489 212.854 20.2237 211.725 21.1044C210.595 21.978 209.228 22.4148 207.623 22.4148ZM207.623 20.071C209.214 20.071 210.45 19.304 211.33 17.7699C212.211 16.2358 212.651 14.0483 212.651 11.2074C212.651 9.31818 212.449 7.70952 212.044 6.38139C211.646 5.05327 211.071 4.04119 210.318 3.34517C209.573 2.64915 208.674 2.30114 207.623 2.30114C206.046 2.30114 204.814 3.07884 203.926 4.63423C203.039 6.18253 202.595 8.37358 202.595 11.2074C202.595 13.0966 202.794 14.7017 203.191 16.0227C203.589 17.3438 204.161 18.3487 204.906 19.0376C205.659 19.7266 206.565 20.071 207.623 20.071ZM225.904 28.5938C224.69 28.5938 223.646 28.4375 222.772 28.125C221.899 27.8196 221.171 27.4148 220.588 26.9105C220.013 26.4134 219.555 25.8807 219.214 25.3125L221.217 23.9062C221.444 24.2045 221.732 24.5455 222.08 24.929C222.428 25.3196 222.904 25.657 223.507 25.9411C224.118 26.2322 224.917 26.3778 225.904 26.3778C227.225 26.3778 228.316 26.0582 229.175 25.419C230.034 24.7798 230.464 23.7784 230.464 22.4148V19.0909H230.251C230.066 19.3892 229.803 19.7585 229.463 20.1989C229.129 20.6321 228.646 21.0192 228.014 21.3601C227.389 21.6939 226.544 21.8608 225.478 21.8608C224.157 21.8608 222.971 21.5483 221.92 20.9233C220.876 20.2983 220.048 19.3892 219.438 18.196C218.834 17.0028 218.532 15.554 218.532 13.8494C218.532 12.1733 218.827 10.7138 219.416 9.47088C220.006 8.22088 220.826 7.25497 221.877 6.57315C222.928 5.88423 224.143 5.53977 225.521 5.53977C226.586 5.53977 227.431 5.71733 228.056 6.07244C228.688 6.42046 229.171 6.81818 229.505 7.26562C229.846 7.70597 230.109 8.06818 230.294 8.35227H230.549V5.75284H232.978V22.5852C232.978 23.9915 232.659 25.1349 232.019 26.0156C231.387 26.9034 230.535 27.5533 229.463 27.9652C228.397 28.3842 227.211 28.5938 225.904 28.5938ZM225.819 19.6023C226.828 19.6023 227.68 19.3714 228.376 18.9098C229.072 18.4482 229.601 17.7841 229.963 16.9176C230.325 16.0511 230.507 15.0142 230.507 13.8068C230.507 12.6278 230.329 11.5874 229.974 10.6854C229.619 9.78338 229.093 9.0767 228.397 8.56534C227.701 8.05398 226.842 7.7983 225.819 7.7983C224.754 7.7983 223.866 8.06818 223.156 8.60795C222.453 9.14773 221.923 9.87216 221.568 10.7813C221.22 11.6903 221.046 12.6989 221.046 13.8068C221.046 14.9432 221.224 15.9482 221.579 16.8217C221.941 17.6882 222.474 18.37 223.177 18.8672C223.887 19.3572 224.768 19.6023 225.819 19.6023ZM149.519 213.117H0V210.117H148.252L65 75.1165H235L151.748 210.117H300V213.117H150.481L235 350.171H65.0001L149.519 213.117ZM115.479 148.867L73.5098 81.3355H226.19L184.221 148.867H178.389L174.184 147.19L172.058 148.867H169.918L169.81 148.037L165.194 146.116L161.598 148.867H159.657L158.583 146.976L153.583 146.941L152.453 148.867H148.097L146.202 148.047L145.098 148.867H136.652L134.235 147.471L131.819 148.867H124.044L122.651 148.817L122.62 148.867H115.479ZM214.313 324.358L214.712 325H214.63L214.313 324.358ZM150.15 221.117L187.988 282H112.312L150.15 221.117Z" fill="white"/>
</svg>
