<svg width="300" height="351" viewBox="0 0 300 351" fill="none" xmlns="http://www.w3.org/2000/svg">
<path fill-rule="evenodd" clip-rule="evenodd" d="M185.818 21.9034C186.713 22.2301 187.608 22.4006 188.503 22.4148C189.973 22.429 191.251 22.1094 192.338 21.456C193.432 20.7955 194.281 19.9077 194.884 18.7926C195.488 17.6705 195.79 16.4347 195.79 15.0852C195.79 13.679 195.477 12.4325 194.852 11.3459C194.227 10.2521 193.396 9.39631 192.359 8.77841C191.322 8.15341 190.179 7.84091 188.929 7.84091C188.183 7.84091 187.477 7.9581 186.809 8.19247C186.141 8.42685 185.531 8.76065 184.977 9.19389C184.43 9.62003 183.957 10.1349 183.56 10.7386H183.389C183.396 8.08239 183.883 6.01918 184.849 4.54901C185.822 3.07884 187.153 2.34375 188.844 2.34375C189.994 2.34375 190.918 2.6669 191.614 3.31321C192.31 3.95952 192.778 4.77273 193.02 5.75284H195.619C195.442 4.62358 195.051 3.62571 194.447 2.75923C193.844 1.89276 193.062 1.21804 192.104 0.735086C191.152 0.245029 190.065 0 188.844 0C187.615 0 186.511 0.266335 185.531 0.799005C184.558 1.33168 183.727 2.11293 183.038 3.14276C182.349 4.16548 181.823 5.42614 181.461 6.92472C181.099 8.41619 180.918 10.1278 180.918 12.0597C180.918 14.0767 181.141 15.7528 181.589 17.0881C182.036 18.4162 182.629 19.4709 183.368 20.2521C184.107 21.0263 184.923 21.5767 185.818 21.9034ZM190.911 19.3999C190.2 19.8473 189.398 20.071 188.503 20.071C187.594 20.071 186.781 19.8402 186.063 19.3786C185.353 18.9169 184.792 18.3097 184.38 17.5568C183.975 16.804 183.773 15.9943 183.773 15.1278C183.773 14.4744 183.897 13.853 184.146 13.2635C184.394 12.6669 184.735 12.1378 185.168 11.6761C185.609 11.2145 186.12 10.8523 186.702 10.5895C187.285 10.3196 187.913 10.1847 188.588 10.1847C189.483 10.1847 190.278 10.4048 190.974 10.8452C191.678 11.2855 192.228 11.8786 192.626 12.6243C193.031 13.3629 193.233 14.1832 193.233 15.0852C193.233 16.0085 193.023 16.8466 192.604 17.5994C192.192 18.3523 191.628 18.9524 190.911 19.3999ZM202.994 21.1044C204.123 21.978 205.491 22.4148 207.096 22.4148C208.701 22.4148 210.068 21.978 211.197 21.1044C212.327 20.2237 213.189 18.9489 213.786 17.2798C214.383 15.6037 214.681 13.5795 214.681 11.2074C214.681 8.84943 214.379 6.83594 213.775 5.1669C213.179 3.49077 212.312 2.21236 211.176 1.33168C210.047 0.443892 208.687 0 207.096 0C205.505 0 204.141 0.443892 203.005 1.33168C201.876 2.21236 201.009 3.49077 200.405 5.1669C199.809 6.83594 199.51 8.84943 199.51 11.2074C199.51 13.5795 199.809 15.6037 200.405 17.2798C201.002 18.9489 201.865 20.2237 202.994 21.1044ZM210.803 17.7699C209.922 19.304 208.687 20.071 207.096 20.071C206.037 20.071 205.132 19.7266 204.379 19.0376C203.633 18.3487 203.062 17.3438 202.664 16.0227C202.266 14.7017 202.067 13.0966 202.067 11.2074C202.067 8.37358 202.511 6.18253 203.399 4.63423C204.287 3.07884 205.519 2.30114 207.096 2.30114C208.147 2.30114 209.045 2.64915 209.791 3.34517C210.544 4.04119 211.119 5.05327 211.517 6.38139C211.922 7.70952 212.124 9.31818 212.124 11.2074C212.124 14.0483 211.684 16.2358 210.803 17.7699ZM222.245 28.125C223.118 28.4375 224.162 28.5938 225.377 28.5938C226.684 28.5938 227.87 28.3842 228.935 27.9652C230.008 27.5533 230.86 26.9034 231.492 26.0156C232.131 25.1349 232.451 23.9915 232.451 22.5852V5.75284H230.022V8.35227H229.766C229.581 8.06818 229.319 7.70597 228.978 7.26562C228.644 6.81818 228.161 6.42046 227.529 6.07244C226.904 5.71733 226.059 5.53977 224.993 5.53977C223.616 5.53977 222.401 5.88423 221.35 6.57315C220.299 7.25497 219.479 8.22088 218.889 9.47088C218.3 10.7138 218.005 12.1733 218.005 13.8494C218.005 15.554 218.307 17.0028 218.91 18.196C219.521 19.3892 220.349 20.2983 221.393 20.9233C222.444 21.5483 223.63 21.8608 224.951 21.8608C226.016 21.8608 226.861 21.6939 227.486 21.3601C228.118 21.0192 228.601 20.6321 228.935 20.1989C229.276 19.7585 229.539 19.3892 229.724 19.0909H229.937V22.4148C229.937 23.7784 229.507 24.7798 228.648 25.419C227.788 26.0582 226.698 26.3778 225.377 26.3778C224.39 26.3778 223.591 26.2322 222.98 25.9411C222.376 25.657 221.9 25.3196 221.552 24.929C221.204 24.5455 220.917 24.2045 220.689 23.9062L218.687 25.3125C219.028 25.8807 219.486 26.4134 220.061 26.9105C220.643 27.4148 221.371 27.8196 222.245 28.125ZM227.849 18.9098C227.153 19.3714 226.3 19.6023 225.292 19.6023C224.241 19.6023 223.36 19.3572 222.65 18.8672C221.947 18.37 221.414 17.6882 221.052 16.8217C220.697 15.9482 220.519 14.9432 220.519 13.8068C220.519 12.6989 220.693 11.6903 221.041 10.7813C221.396 9.87216 221.925 9.14773 222.628 8.60795C223.339 8.06818 224.226 7.7983 225.292 7.7983C226.314 7.7983 227.174 8.05398 227.87 8.56534C228.566 9.0767 229.091 9.78338 229.447 10.6854C229.802 11.5874 229.979 12.6278 229.979 13.8068C229.979 15.0142 229.798 16.0511 229.436 16.9176C229.074 17.7841 228.545 18.4482 227.849 18.9098ZM149.519 213.117H0V210.117H148.252L65 75.1165H235L151.748 210.117H300V213.117H150.481L235 350.171H65.0001L149.519 213.117ZM73.5098 81.3355L115.479 148.867H122.62L122.651 148.817L124.044 148.867H131.819L134.235 147.471L136.652 148.867H145.098L146.202 148.047L148.097 148.867H152.453L153.583 146.941L158.583 146.976L159.657 148.867H161.598L165.194 146.116L169.81 148.037L169.918 148.867H172.058L174.184 147.19L178.389 148.867H184.221L226.19 81.3355H73.5098ZM216.577 328L150.15 221.117L83.7235 328H91.5255L89 324.476L113.384 307L128.435 328H136.462L134 321.162L135.22 320.723L112 304.684L129.05 280L135.224 284.264L140.086 256L169.652 261.086L165.049 287.84L177.384 279L194.86 303.384L186.25 309.555L211.112 324.316L208.924 328H216.577ZM174.035 328L184.05 311.132L170.476 320.86L153.576 297.28L138.098 319.686L162.227 311L168.347 328H174.035ZM137.807 286.049L161.792 290.175L153 296.476L153.095 296.609L137.807 286.049Z" fill="white"/>
</svg>
