<svg width="300" height="378" viewBox="0 0 300 378" fill="none" xmlns="http://www.w3.org/2000/svg">
<path fill-rule="evenodd" clip-rule="evenodd" d="M160 0H140V20H160V0ZM155 5H145V15H155V5ZM150.142 29L136 43.1421L150.142 57.2843L164.284 43.1421L150.142 29ZM150.142 36.0711L143.071 43.1421L150.142 50.2132L157.213 43.1421L150.142 36.0711ZM140 66H160V86H140V66ZM145 71H155V81H145V71ZM148.252 237L65 102H235L151.748 237H300V240H150.481L235 377.054H65.0001L149.519 240H0V237H148.252ZM149.85 231.054L146.049 224.938L150.235 227.355L153.219 225.632L149.85 231.054ZM145.905 219.855V224.707L136.137 208.989L140.235 211.355L144.566 208.855V203.855L143.959 203.505L146.404 204.238L150.042 200.808L148.91 196.025L150.158 197.075L152.922 196.073L151.158 199.53L153.298 202.828L148.954 202.008L145.694 205.799L147.254 210.252L143.306 209.751L140.281 213.732L142.217 218.342L147.177 218.971L150.202 214.99L148.409 210.718L151.791 211.357L150.187 214.637L152.977 218.785L157.675 218.463L154.566 223.466V219.855L150.235 217.355L145.905 219.855ZM135.905 203.855V208.616L131.647 201.765L136.325 203.214L139.994 199.817L138.957 195.245L139.047 195.338L143.894 194.111L145.254 189.299L142.998 186.98L147.352 188.864L151.366 185.882L150.791 180.916L146.202 178.93L142.188 181.912L142.745 186.72L141.768 185.716L136.921 186.943L135.56 191.754L138.563 194.841L134.315 193.525L135.073 192.801L133.953 188.192L134.235 188.355L138.566 185.855V180.855L134.235 178.355L129.905 180.855V184.126L127.648 179.877L122.651 179.701L120.286 183.484L73.5098 108.219H226.19L179.358 183.574L178.828 179.925L174.184 178.073L170.258 181.17L170.976 186.118L171.382 186.28L167.489 186.931L166.139 190.542L163.902 186.098L158.936 185.814L161.052 182.208L158.583 177.86L153.583 177.824L151.053 182.137L153.522 186.484L158.447 186.519L156.167 189.993L158.416 194.459L163.017 194.722L160.99 195.862L160.957 198.723L158.423 194.817L154.925 194.999L155.733 190.447L151.906 187.229L147.206 188.934L146.332 193.857L148.768 195.905L144.101 194.507L140.463 197.937L141.436 202.048L140.235 201.355L135.905 203.855ZM130.442 196.858L131.503 201.533L127.501 195.094L131.182 196.173L130.442 196.858ZM125.477 189.988L126.215 193.024L123.335 188.391L127.015 188.52L125.477 189.988ZM175.621 187.97L177.593 186.414L175.479 189.816L173.143 186.982L175.621 187.97ZM168.919 195.473L172.317 194.904L169.612 199.255L169.649 195.96L165.348 193.411L163.659 194.361L166.105 190.635L165.738 191.615L168.919 195.473ZM165.235 203.411L167.994 201.859L165.501 205.87L164.944 203.238L165.235 203.411ZM162.197 211.174L162.215 211.157L158.995 216.339L160.163 213.952L157.373 209.803L153.441 210.073L155.521 207.655L154.139 203.711L157.753 203.524L156.408 204.732L157.444 209.624L162.197 211.174ZM150.15 248L226.49 370.835H73.8099L150.15 248ZM169.81 178.92L165.194 177L161.222 180.038L161.867 184.996L166.484 186.916L170.455 183.879L169.81 178.92ZM127.847 187.726L129.094 186.536L133.138 187.722L129.905 185.855V184.434L127.847 187.726ZM160.933 200.862L163.901 202.62L160.127 201.39L159.765 201.715L160.95 199.393L160.933 200.862ZM180.747 42.3523V44.5256H191.017V49H193.531V44.5256H196.514V42.1818H193.531V27.1818H191.912H191.017H190.335L180.747 42.3523ZM191.017 30.5483H190.847L183.602 42.0114V42.1818H191.017V30.5483ZM203.521 47.9879C204.651 48.8615 206.018 49.2983 207.623 49.2983C209.228 49.2983 210.595 48.8615 211.725 47.9879C212.854 47.1072 213.717 45.8324 214.313 44.1634C214.91 42.4872 215.208 40.4631 215.208 38.0909C215.208 35.733 214.906 33.7195 214.303 32.0504C213.706 30.3743 212.84 29.0959 211.703 28.2152C210.574 27.3274 209.214 26.8835 207.623 26.8835C206.032 26.8835 204.669 27.3274 203.532 28.2152C202.403 29.0959 201.536 30.3743 200.933 32.0504C200.336 33.7195 200.038 35.733 200.038 38.0909C200.038 40.4631 200.336 42.4872 200.933 44.1634C201.529 45.8324 202.392 47.1072 203.521 47.9879ZM211.33 44.6534C210.45 46.1875 209.214 46.9545 207.623 46.9545C206.565 46.9545 205.659 46.6101 204.906 45.9212C204.161 45.2322 203.589 44.2273 203.191 42.9062C202.794 41.5852 202.595 39.9801 202.595 38.0909C202.595 35.2571 203.039 33.0661 203.926 31.5178C204.814 29.9624 206.046 29.1847 207.623 29.1847C208.674 29.1847 209.573 29.5327 210.318 30.2287C211.071 30.9247 211.646 31.9368 212.044 33.2649C212.449 34.593 212.651 36.2017 212.651 38.0909C212.651 40.9318 212.211 43.1193 211.33 44.6534ZM222.772 55.0085C223.646 55.321 224.69 55.4773 225.904 55.4773C227.211 55.4773 228.397 55.2678 229.463 54.8487C230.535 54.4368 231.387 53.7869 232.019 52.8991C232.659 52.0185 232.978 50.875 232.978 49.4688V32.6364H230.549V35.2358H230.294C230.109 34.9517 229.846 34.5895 229.505 34.1491C229.171 33.7017 228.688 33.304 228.056 32.956C227.431 32.6009 226.586 32.4233 225.521 32.4233C224.143 32.4233 222.928 32.7678 221.877 33.4567C220.826 34.1385 220.006 35.1044 219.416 36.3544C218.827 37.5973 218.532 39.0568 218.532 40.733C218.532 42.4375 218.834 43.8864 219.438 45.0795C220.048 46.2727 220.876 47.1818 221.92 47.8068C222.971 48.4318 224.157 48.7443 225.478 48.7443C226.544 48.7443 227.389 48.5774 228.014 48.2436C228.646 47.9027 229.129 47.5156 229.463 47.0824C229.803 46.642 230.066 46.2727 230.251 45.9744H230.464V49.2983C230.464 50.6619 230.034 51.6634 229.175 52.3026C228.316 52.9418 227.225 53.2614 225.904 53.2614C224.917 53.2614 224.118 53.1158 223.507 52.8246C222.904 52.5405 222.428 52.2031 222.08 51.8125C221.732 51.429 221.444 51.0881 221.217 50.7898L219.214 52.196C219.555 52.7642 220.013 53.2969 220.588 53.794C221.171 54.2983 221.899 54.7031 222.772 55.0085ZM228.376 45.7933C227.68 46.255 226.828 46.4858 225.819 46.4858C224.768 46.4858 223.887 46.2408 223.177 45.7507C222.474 45.2536 221.941 44.5717 221.579 43.7053C221.224 42.8317 221.046 41.8267 221.046 40.6903C221.046 39.5824 221.22 38.5739 221.568 37.6648C221.923 36.7557 222.453 36.0312 223.156 35.4915C223.866 34.9517 224.754 34.6818 225.819 34.6818C226.842 34.6818 227.701 34.9375 228.397 35.4489C229.093 35.9602 229.619 36.6669 229.974 37.5689C230.329 38.4709 230.507 39.5114 230.507 40.6903C230.507 41.8977 230.325 42.9347 229.963 43.8011C229.601 44.6676 229.072 45.3317 228.376 45.7933Z" fill="white"/>
</svg>
