<svg width="300" height="378" viewBox="0 0 300 378" fill="none" xmlns="http://www.w3.org/2000/svg">
<path fill-rule="evenodd" clip-rule="evenodd" d="M160 0H140V20H160V0ZM155 5H145V15H155V5ZM150.142 29L136 43.1421L150.142 57.2843L164.284 43.1421L150.142 29ZM150.142 36.0711L143.071 43.1421L150.142 50.2132L157.213 43.1421L150.142 36.0711ZM140 66H160V86H140V66ZM145 71H155V81H145V71ZM148.252 237L65 102H235L151.748 237H300V240H150.481L235 377.054H195.83L195.796 377.112L195.699 377.054H65.0001L149.519 240H0V237H148.252ZM174.035 355H168.347L162.227 338L138.098 346.686L153.576 324.28L170.476 347.86L184.05 338.132L174.035 355ZM208.924 355L211.112 351.316L186.25 336.555L194.86 330.384L177.384 306L165.049 314.84L169.652 288.086L140.086 283L135.224 311.264L129.05 307L112 331.684L135.22 347.723L134 348.162L136.462 355H128.435L113.384 334L89 351.476L91.5255 355H83.6511L150.15 248L216.649 355H208.924ZM91.2414 136.75L73.5098 108.219H226.19L208.458 136.75H91.2414ZM188.503 49.2983C187.608 49.2841 186.713 49.1136 185.818 48.7869C184.923 48.4602 184.107 47.9098 183.368 47.1357C182.629 46.3544 182.036 45.2997 181.589 43.9716C181.141 42.6364 180.918 40.9602 180.918 38.9432C180.918 37.0114 181.099 35.2997 181.461 33.8082C181.823 32.3097 182.349 31.049 183.038 30.0263C183.727 28.9964 184.558 28.2152 185.531 27.6825C186.511 27.1499 187.615 26.8835 188.844 26.8835C190.065 26.8835 191.152 27.1286 192.104 27.6186C193.062 28.1016 193.844 28.7763 194.447 29.6428C195.051 30.5092 195.442 31.5071 195.619 32.6364H193.02C192.778 31.6562 192.31 30.843 191.614 30.1967C190.918 29.5504 189.994 29.2273 188.844 29.2273C187.153 29.2273 185.822 29.9624 184.849 31.4325C183.883 32.9027 183.396 34.9659 183.389 37.6222H183.56C183.957 37.0185 184.43 36.5036 184.977 36.0774C185.531 35.6442 186.141 35.3104 186.809 35.076C187.477 34.8416 188.183 34.7244 188.929 34.7244C190.179 34.7244 191.322 35.0369 192.359 35.6619C193.396 36.2798 194.227 37.1357 194.852 38.2294C195.477 39.3161 195.79 40.5625 195.79 41.9688C195.79 43.3182 195.488 44.554 194.884 45.6761C194.281 46.7912 193.432 47.679 192.338 48.3395C191.251 48.9929 189.973 49.3125 188.503 49.2983ZM188.503 46.9545C189.398 46.9545 190.2 46.7308 190.911 46.2834C191.628 45.8359 192.192 45.2358 192.604 44.483C193.023 43.7301 193.233 42.892 193.233 41.9688C193.233 41.0668 193.031 40.2464 192.626 39.5078C192.228 38.7621 191.678 38.169 190.974 37.7287C190.278 37.2884 189.483 37.0682 188.588 37.0682C187.913 37.0682 187.285 37.2031 186.702 37.473C186.12 37.7358 185.609 38.098 185.168 38.5597C184.735 39.0213 184.394 39.5504 184.146 40.147C183.897 40.7365 183.773 41.358 183.773 42.0114C183.773 42.8778 183.975 43.6875 184.38 44.4403C184.792 45.1932 185.353 45.8004 186.063 46.2621C186.781 46.7237 187.594 46.9545 188.503 46.9545ZM207.096 49.2983C205.491 49.2983 204.123 48.8615 202.994 47.9879C201.865 47.1072 201.002 45.8324 200.405 44.1634C199.809 42.4872 199.51 40.4631 199.51 38.0909C199.51 35.733 199.809 33.7195 200.405 32.0504C201.009 30.3743 201.876 29.0959 203.005 28.2152C204.141 27.3274 205.505 26.8835 207.096 26.8835C208.687 26.8835 210.047 27.3274 211.176 28.2152C212.312 29.0959 213.179 30.3743 213.775 32.0504C214.379 33.7195 214.681 35.733 214.681 38.0909C214.681 40.4631 214.383 42.4872 213.786 44.1634C213.189 45.8324 212.327 47.1072 211.197 47.9879C210.068 48.8615 208.701 49.2983 207.096 49.2983ZM207.096 46.9545C208.687 46.9545 209.922 46.1875 210.803 44.6534C211.684 43.1193 212.124 40.9318 212.124 38.0909C212.124 36.2017 211.922 34.593 211.517 33.2649C211.119 31.9368 210.544 30.9247 209.791 30.2287C209.045 29.5327 208.147 29.1847 207.096 29.1847C205.519 29.1847 204.287 29.9624 203.399 31.5178C202.511 33.0661 202.067 35.2571 202.067 38.0909C202.067 39.9801 202.266 41.5852 202.664 42.9062C203.062 44.2273 203.633 45.2322 204.379 45.9212C205.132 46.6101 206.037 46.9545 207.096 46.9545ZM225.377 55.4773C224.162 55.4773 223.118 55.321 222.245 55.0085C221.371 54.7031 220.643 54.2983 220.061 53.794C219.486 53.2969 219.028 52.7642 218.687 52.196L220.689 50.7898C220.917 51.0881 221.204 51.429 221.552 51.8125C221.9 52.2031 222.376 52.5405 222.98 52.8246C223.591 53.1158 224.39 53.2614 225.377 53.2614C226.698 53.2614 227.788 52.9418 228.648 52.3026C229.507 51.6634 229.937 50.6619 229.937 49.2983V45.9744H229.724C229.539 46.2727 229.276 46.642 228.935 47.0824C228.601 47.5156 228.118 47.9027 227.486 48.2436C226.861 48.5774 226.016 48.7443 224.951 48.7443C223.63 48.7443 222.444 48.4318 221.393 47.8068C220.349 47.1818 219.521 46.2727 218.91 45.0795C218.307 43.8864 218.005 42.4375 218.005 40.733C218.005 39.0568 218.3 37.5973 218.889 36.3544C219.479 35.1044 220.299 34.1385 221.35 33.4567C222.401 32.7678 223.616 32.4233 224.993 32.4233C226.059 32.4233 226.904 32.6009 227.529 32.956C228.161 33.304 228.644 33.7017 228.978 34.1491C229.319 34.5895 229.581 34.9517 229.766 35.2358H230.022V32.6364H232.451V49.4688C232.451 50.875 232.131 52.0185 231.492 52.8991C230.86 53.7869 230.008 54.4368 228.935 54.8487C227.87 55.2678 226.684 55.4773 225.377 55.4773ZM225.292 46.4858C226.3 46.4858 227.153 46.255 227.849 45.7933C228.545 45.3317 229.074 44.6676 229.436 43.8011C229.798 42.9347 229.979 41.8977 229.979 40.6903C229.979 39.5114 229.802 38.4709 229.447 37.5689C229.091 36.6669 228.566 35.9602 227.87 35.4489C227.174 34.9375 226.314 34.6818 225.292 34.6818C224.226 34.6818 223.339 34.9517 222.628 35.4915C221.925 36.0312 221.396 36.7557 221.041 37.6648C220.693 38.5739 220.519 39.5824 220.519 40.6903C220.519 41.8267 220.697 42.8317 221.052 43.7053C221.414 44.5717 221.947 45.2536 222.65 45.7507C223.36 46.2408 224.241 46.4858 225.292 46.4858ZM161.792 317.175L137.807 313.049L153.095 323.609L153 323.476L161.792 317.175Z" fill="white"/>
</svg>
