<svg width="300" height="351" viewBox="0 0 300 351" fill="none" xmlns="http://www.w3.org/2000/svg">
<path fill-rule="evenodd" clip-rule="evenodd" d="M188.503 22.4148C187.608 22.4006 186.713 22.2301 185.818 21.9034C184.923 21.5767 184.107 21.0263 183.368 20.2521C182.629 19.4709 182.036 18.4162 181.589 17.0881C181.141 15.7528 180.918 14.0767 180.918 12.0597C180.918 10.1278 181.099 8.41619 181.461 6.92472C181.823 5.42614 182.349 4.16548 183.038 3.14276C183.727 2.11293 184.558 1.33168 185.531 0.799005C186.511 0.266335 187.615 0 188.844 0C190.065 0 191.152 0.245029 192.104 0.735086C193.062 1.21804 193.844 1.89276 194.447 2.75923C195.051 3.62571 195.442 4.62358 195.619 5.75284H193.02C192.778 4.77273 192.31 3.95952 191.614 3.31321C190.918 2.6669 189.994 2.34375 188.844 2.34375C187.153 2.34375 185.822 3.07884 184.849 4.54901C183.883 6.01918 183.396 8.08239 183.389 10.7386H183.56C183.957 10.1349 184.43 9.62003 184.977 9.19389C185.531 8.76065 186.141 8.42685 186.809 8.19247C187.477 7.9581 188.183 7.84091 188.929 7.84091C190.179 7.84091 191.322 8.15341 192.359 8.77841C193.396 9.39631 194.227 10.2521 194.852 11.3459C195.477 12.4325 195.79 13.679 195.79 15.0852C195.79 16.4347 195.488 17.6705 194.884 18.7926C194.281 19.9077 193.432 20.7955 192.338 21.456C191.251 22.1094 189.973 22.429 188.503 22.4148ZM188.503 20.071C189.398 20.071 190.2 19.8473 190.911 19.3999C191.628 18.9524 192.192 18.3523 192.604 17.5994C193.023 16.8466 193.233 16.0085 193.233 15.0852C193.233 14.1832 193.031 13.3629 192.626 12.6243C192.228 11.8786 191.678 11.2855 190.974 10.8452C190.278 10.4048 189.483 10.1847 188.588 10.1847C187.913 10.1847 187.285 10.3196 186.702 10.5895C186.12 10.8523 185.609 11.2145 185.168 11.6761C184.735 12.1378 184.394 12.6669 184.146 13.2635C183.897 13.853 183.773 14.4744 183.773 15.1278C183.773 15.9943 183.975 16.804 184.38 17.5568C184.792 18.3097 185.353 18.9169 186.063 19.3786C186.781 19.8402 187.594 20.071 188.503 20.071ZM207.096 22.4148C205.491 22.4148 204.123 21.978 202.994 21.1044C201.865 20.2237 201.002 18.9489 200.405 17.2798C199.809 15.6037 199.51 13.5795 199.51 11.2074C199.51 8.84943 199.809 6.83594 200.405 5.1669C201.009 3.49077 201.876 2.21236 203.005 1.33168C204.141 0.443892 205.505 0 207.096 0C208.687 0 210.047 0.443892 211.176 1.33168C212.312 2.21236 213.179 3.49077 213.775 5.1669C214.379 6.83594 214.681 8.84943 214.681 11.2074C214.681 13.5795 214.383 15.6037 213.786 17.2798C213.189 18.9489 212.327 20.2237 211.197 21.1044C210.068 21.978 208.701 22.4148 207.096 22.4148ZM207.096 20.071C208.687 20.071 209.922 19.304 210.803 17.7699C211.684 16.2358 212.124 14.0483 212.124 11.2074C212.124 9.31818 211.922 7.70952 211.517 6.38139C211.119 5.05327 210.544 4.04119 209.791 3.34517C209.045 2.64915 208.147 2.30114 207.096 2.30114C205.519 2.30114 204.287 3.07884 203.399 4.63423C202.511 6.18253 202.067 8.37358 202.067 11.2074C202.067 13.0966 202.266 14.7017 202.664 16.0227C203.062 17.3438 203.633 18.3487 204.379 19.0376C205.132 19.7266 206.037 20.071 207.096 20.071ZM225.377 28.5938C224.162 28.5938 223.118 28.4375 222.245 28.125C221.371 27.8196 220.643 27.4148 220.061 26.9105C219.486 26.4134 219.028 25.8807 218.687 25.3125L220.689 23.9062C220.917 24.2045 221.204 24.5455 221.552 24.929C221.9 25.3196 222.376 25.657 222.98 25.9411C223.591 26.2322 224.39 26.3778 225.377 26.3778C226.698 26.3778 227.788 26.0582 228.648 25.419C229.507 24.7798 229.937 23.7784 229.937 22.4148V19.0909H229.724C229.539 19.3892 229.276 19.7585 228.935 20.1989C228.601 20.6321 228.118 21.0192 227.486 21.3601C226.861 21.6939 226.016 21.8608 224.951 21.8608C223.63 21.8608 222.444 21.5483 221.393 20.9233C220.349 20.2983 219.521 19.3892 218.91 18.196C218.307 17.0028 218.005 15.554 218.005 13.8494C218.005 12.1733 218.3 10.7138 218.889 9.47088C219.479 8.22088 220.299 7.25497 221.35 6.57315C222.401 5.88423 223.616 5.53977 224.993 5.53977C226.059 5.53977 226.904 5.71733 227.529 6.07244C228.161 6.42046 228.644 6.81818 228.978 7.26562C229.319 7.70597 229.581 8.06818 229.766 8.35227H230.022V5.75284H232.451V22.5852C232.451 23.9915 232.131 25.1349 231.492 26.0156C230.86 26.9034 230.008 27.5533 228.935 27.9652C227.87 28.3842 226.684 28.5938 225.377 28.5938ZM225.292 19.6023C226.3 19.6023 227.153 19.3714 227.849 18.9098C228.545 18.4482 229.074 17.7841 229.436 16.9176C229.798 16.0511 229.979 15.0142 229.979 13.8068C229.979 12.6278 229.802 11.5874 229.447 10.6854C229.091 9.78338 228.566 9.0767 227.87 8.56534C227.174 8.05398 226.314 7.7983 225.292 7.7983C224.226 7.7983 223.339 8.06818 222.628 8.60795C221.925 9.14773 221.396 9.87216 221.041 10.7813C220.693 11.6903 220.519 12.6989 220.519 13.8068C220.519 14.9432 220.697 15.9482 221.052 16.8217C221.414 17.6882 221.947 18.37 222.65 18.8672C223.36 19.3572 224.241 19.6023 225.292 19.6023ZM0 213.117H149.519L65.0001 350.171H235L150.481 213.117H300V210.117H151.748L235 75.1165H65L148.252 210.117H0V213.117ZM115.479 148.867L73.5098 81.3355H226.19L184.221 148.867H178.389L174.184 147.19L172.058 148.867H169.918L169.81 148.037L165.194 146.116L161.598 148.867H159.657L158.583 146.976L153.583 146.941L152.453 148.867H148.097L146.202 148.047L145.098 148.867H136.652L134.235 147.471L131.819 148.867H124.044L122.651 148.817L122.62 148.867H115.479ZM216.577 328L150.15 221.117L83.7235 328H216.577Z" fill="white"/>
</svg>
