<svg width="300" height="378" viewBox="0 0 300 378" fill="none" xmlns="http://www.w3.org/2000/svg">
<path fill-rule="evenodd" clip-rule="evenodd" d="M140 0H160V20H140V0ZM145 5H155V15H145V5ZM150.142 57.2843L136 43.1421L150.142 29L164.284 43.1421L150.142 57.2843ZM143.071 43.1421L150.142 36.0711L157.213 43.1421L150.142 50.2132L143.071 43.1421ZM160 66H140V86H160V66ZM155 71H145V81H155V71ZM65 102L148.252 237H0V240H149.519L65.0001 377.054H195.699L195.796 377.112L195.83 377.054H235L150.481 240H300V237H151.748L235 102H65ZM199.523 370.835H226.49L150.15 248L73.8099 370.835H102.874L89 351.476L113.384 334L130.86 358.384L113.488 370.835H142.163L134 348.162L135.22 347.723L112 331.684L129.05 307L135.224 311.264L140.086 283L169.652 288.086L165.049 314.84L177.384 306L194.86 330.384L186.25 336.555L211.112 351.316L199.523 370.835ZM159.587 370.835H185.224L171.009 362.395L172.388 366.226L159.587 370.835ZM73.5098 108.219L91.2414 136.75H208.458L226.19 108.219H73.5098ZM185.818 48.7869C186.713 49.1136 187.608 49.2841 188.503 49.2983C189.973 49.3125 191.251 48.9929 192.338 48.3395C193.432 47.679 194.281 46.7912 194.884 45.6761C195.488 44.554 195.79 43.3182 195.79 41.9688C195.79 40.5625 195.477 39.3161 194.852 38.2294C194.227 37.1357 193.396 36.2798 192.359 35.6619C191.322 35.0369 190.179 34.7244 188.929 34.7244C188.183 34.7244 187.477 34.8416 186.809 35.076C186.141 35.3104 185.531 35.6442 184.977 36.0774C184.43 36.5036 183.957 37.0185 183.56 37.6222H183.389C183.396 34.9659 183.883 32.9027 184.849 31.4325C185.822 29.9624 187.153 29.2273 188.844 29.2273C189.994 29.2273 190.918 29.5504 191.614 30.1967C192.31 30.843 192.778 31.6562 193.02 32.6364H195.619C195.442 31.5071 195.051 30.5092 194.447 29.6428C193.844 28.7763 193.062 28.1016 192.104 27.6186C191.152 27.1286 190.065 26.8835 188.844 26.8835C187.615 26.8835 186.511 27.1499 185.531 27.6825C184.558 28.2152 183.727 28.9964 183.038 30.0263C182.349 31.049 181.823 32.3097 181.461 33.8082C181.099 35.2997 180.918 37.0114 180.918 38.9432C180.918 40.9602 181.141 42.6364 181.589 43.9716C182.036 45.2997 182.629 46.3544 183.368 47.1357C184.107 47.9098 184.923 48.4602 185.818 48.7869ZM190.911 46.2834C190.2 46.7308 189.398 46.9545 188.503 46.9545C187.594 46.9545 186.781 46.7237 186.063 46.2621C185.353 45.8004 184.792 45.1932 184.38 44.4403C183.975 43.6875 183.773 42.8778 183.773 42.0114C183.773 41.358 183.897 40.7365 184.146 40.147C184.394 39.5504 184.735 39.0213 185.168 38.5597C185.609 38.098 186.12 37.7358 186.702 37.473C187.285 37.2031 187.913 37.0682 188.588 37.0682C189.483 37.0682 190.278 37.2884 190.974 37.7287C191.678 38.169 192.228 38.7621 192.626 39.5078C193.031 40.2464 193.233 41.0668 193.233 41.9688C193.233 42.892 193.023 43.7301 192.604 44.483C192.192 45.2358 191.628 45.8359 190.911 46.2834ZM202.994 47.9879C204.123 48.8615 205.491 49.2983 207.096 49.2983C208.701 49.2983 210.068 48.8615 211.197 47.9879C212.327 47.1072 213.189 45.8324 213.786 44.1634C214.383 42.4872 214.681 40.4631 214.681 38.0909C214.681 35.733 214.379 33.7195 213.775 32.0504C213.179 30.3743 212.312 29.0959 211.176 28.2152C210.047 27.3274 208.687 26.8835 207.096 26.8835C205.505 26.8835 204.141 27.3274 203.005 28.2152C201.876 29.0959 201.009 30.3743 200.405 32.0504C199.809 33.7195 199.51 35.733 199.51 38.0909C199.51 40.4631 199.809 42.4872 200.405 44.1634C201.002 45.8324 201.865 47.1072 202.994 47.9879ZM210.803 44.6534C209.922 46.1875 208.687 46.9545 207.096 46.9545C206.037 46.9545 205.132 46.6101 204.379 45.9212C203.633 45.2322 203.062 44.2273 202.664 42.9062C202.266 41.5852 202.067 39.9801 202.067 38.0909C202.067 35.2571 202.511 33.0661 203.399 31.5178C204.287 29.9624 205.519 29.1847 207.096 29.1847C208.147 29.1847 209.045 29.5327 209.791 30.2287C210.544 30.9247 211.119 31.9368 211.517 33.2649C211.922 34.593 212.124 36.2017 212.124 38.0909C212.124 40.9318 211.684 43.1193 210.803 44.6534ZM222.245 55.0085C223.118 55.321 224.162 55.4773 225.377 55.4773C226.684 55.4773 227.87 55.2678 228.935 54.8487C230.008 54.4368 230.86 53.7869 231.492 52.8991C232.131 52.0185 232.451 50.875 232.451 49.4688V32.6364H230.022V35.2358H229.766C229.581 34.9517 229.319 34.5895 228.978 34.1491C228.644 33.7017 228.161 33.304 227.529 32.956C226.904 32.6009 226.059 32.4233 224.993 32.4233C223.616 32.4233 222.401 32.7678 221.35 33.4567C220.299 34.1385 219.479 35.1044 218.889 36.3544C218.3 37.5973 218.005 39.0568 218.005 40.733C218.005 42.4375 218.307 43.8864 218.91 45.0795C219.521 46.2727 220.349 47.1818 221.393 47.8068C222.444 48.4318 223.63 48.7443 224.951 48.7443C226.016 48.7443 226.861 48.5774 227.486 48.2436C228.118 47.9027 228.601 47.5156 228.935 47.0824C229.276 46.642 229.539 46.2727 229.724 45.9744H229.937V49.2983C229.937 50.6619 229.507 51.6634 228.648 52.3026C227.788 52.9418 226.698 53.2614 225.377 53.2614C224.39 53.2614 223.591 53.1158 222.98 52.8246C222.376 52.5405 221.9 52.2031 221.552 51.8125C221.204 51.429 220.917 51.0881 220.689 50.7898L218.687 52.196C219.028 52.7642 219.486 53.2969 220.061 53.794C220.643 54.2983 221.371 54.7031 222.245 55.0085ZM227.849 45.7933C227.153 46.255 226.3 46.4858 225.292 46.4858C224.241 46.4858 223.36 46.2408 222.65 45.7507C221.947 45.2536 221.414 44.5717 221.052 43.7053C220.697 42.8317 220.519 41.8267 220.519 40.6903C220.519 39.5824 220.693 38.5739 221.041 37.6648C221.396 36.7557 221.925 36.0312 222.628 35.4915C223.339 34.9517 224.226 34.6818 225.292 34.6818C226.314 34.6818 227.174 34.9375 227.87 35.4489C228.566 35.9602 229.091 36.6669 229.447 37.5689C229.802 38.4709 229.979 39.5114 229.979 40.6903C229.979 41.8977 229.798 42.9347 229.436 43.8011C229.074 44.6676 228.545 45.3317 227.849 45.7933ZM161.792 317.175L137.807 313.049L153.095 323.609L153 323.476L161.792 317.175ZM162.227 338L138.098 346.686L153.576 324.28L170.476 347.86L184.05 338.132L170.494 360.964L162.227 338Z" fill="white"/>
</svg>
