<svg width="300" height="378" viewBox="0 0 300 378" fill="none" xmlns="http://www.w3.org/2000/svg">
<path fill-rule="evenodd" clip-rule="evenodd" d="M140 0.00012207H160V20.0001H140V0.00012207ZM145 5.00012H155V15.0001H145V5.00012ZM150.142 57.2844L136 43.1423L150.142 29.0001L164.284 43.1423L150.142 57.2844ZM143.071 43.1423L150.142 36.0712L157.213 43.1423L150.142 50.2133L143.071 43.1423ZM160 66.0001H140V86.0001H160V66.0001ZM155 71.0001H145V81.0001H155V71.0001ZM65 102L148.252 237H0V240H149.519L65.0001 377.054H195.699L195.796 377.112L195.83 377.054H235L150.481 240H300V237H151.748L235 102H65ZM226.49 370.835H199.523L211.112 351.316L186.25 336.555L194.86 330.384L177.384 306L165.049 314.841L169.652 288.087L140.086 283L135.224 311.264L129.05 307L112 331.684L135.22 347.723L134 348.162L142.163 370.835H113.488L130.86 358.384L113.384 334L89 351.476L102.874 370.835H73.8099L150.15 248L226.49 370.835ZM172.388 366.227L159.587 370.835H185.224L171.009 362.395L172.388 366.227ZM146.049 224.938L149.85 231.054L153.22 225.632L150.235 227.355L146.049 224.938ZM145.905 224.707V219.855L150.235 217.355L154.566 219.855V223.466L157.675 218.463L152.977 218.786L150.187 214.637L151.791 211.357L148.409 210.718L150.202 214.99L147.177 218.971L142.217 218.342L140.281 213.732L143.306 209.751L147.254 210.252L145.694 205.799L148.954 202.008L153.298 202.828L151.158 199.53L152.922 196.073L150.159 197.075L148.91 196.025L150.042 200.808L146.404 204.238L143.959 203.505L144.566 203.855V208.855L140.235 211.355L136.137 208.989L145.905 224.707ZM135.905 208.617V203.855L140.235 201.355L141.436 202.048L140.463 197.937L144.101 194.507L148.768 195.905L146.332 193.857L147.206 188.934L151.906 187.229L155.733 190.447L154.925 194.999L158.423 194.817L160.957 198.723L160.99 195.862L163.017 194.722L158.416 194.459L156.167 189.993L158.447 186.519L153.522 186.484L151.053 182.137L153.583 177.824L158.583 177.86L161.052 182.208L158.936 185.814L163.902 186.099L166.139 190.542L167.489 186.931L171.382 186.28L170.976 186.118L170.258 181.17L174.184 178.074L178.828 179.925L179.358 183.574L226.19 108.219H73.5098L120.286 183.484L122.651 179.701L127.648 179.877L129.905 184.126V180.855L134.235 178.355L138.566 180.855V185.855L134.235 188.355L133.953 188.192L135.073 192.801L134.315 193.525L138.563 194.841L135.56 191.754L136.921 186.943L141.768 185.716L142.745 186.72L142.188 181.912L146.202 178.93L150.791 180.916L151.366 185.882L147.352 188.864L142.998 186.98L145.254 189.3L143.894 194.111L139.047 195.338L138.957 195.246L139.994 199.817L136.325 203.214L131.647 201.765L135.905 208.617ZM131.503 201.533L130.442 196.858L131.182 196.173L127.501 195.094L131.503 201.533ZM126.215 193.024L125.477 189.988L127.015 188.52L123.335 188.391L126.215 193.024ZM177.593 186.414L175.621 187.97L173.143 186.982L175.479 189.816L177.593 186.414ZM172.317 194.904L168.919 195.473L165.738 191.615L166.105 190.635L163.659 194.361L165.348 193.411L169.649 195.96L169.612 199.256L172.317 194.904ZM167.994 201.859L165.235 203.411L164.944 203.238L165.501 205.87L167.994 201.859ZM162.215 211.157L162.197 211.174L157.444 209.624L156.408 204.733L157.753 203.524L154.139 203.711L155.521 207.655L153.441 210.073L157.373 209.803L160.163 213.952L158.995 216.339L162.215 211.157ZM188.503 49.2984C187.608 49.2842 186.713 49.1138 185.818 48.7871C184.923 48.4604 184.107 47.9099 183.368 47.1358C182.629 46.3545 182.036 45.2998 181.589 43.9717C181.141 42.6365 180.918 40.9604 180.918 38.9433C180.918 37.0115 181.099 35.2998 181.461 33.8084C181.823 32.3098 182.349 31.0491 183.038 30.0264C183.727 28.9966 184.558 28.2153 185.531 27.6826C186.511 27.15 187.615 26.8836 188.844 26.8836C190.065 26.8836 191.152 27.1287 192.104 27.6187C193.062 28.1017 193.844 28.7764 194.447 29.6429C195.051 30.5094 195.442 31.5072 195.619 32.6365H193.02C192.778 31.6564 192.31 30.8432 191.614 30.1969C190.918 29.5505 189.994 29.2274 188.844 29.2274C187.153 29.2274 185.822 29.9625 184.849 31.4327C183.883 32.9028 183.396 34.966 183.389 37.6223H183.56C183.957 37.0186 184.43 36.5037 184.977 36.0775C185.531 35.6443 186.141 35.3105 186.809 35.0761C187.477 34.8417 188.183 34.7246 188.929 34.7246C190.179 34.7246 191.322 35.0371 192.359 35.6621C193.396 36.28 194.227 37.1358 194.852 38.2295C195.477 39.3162 195.79 40.5626 195.79 41.9689C195.79 43.3183 195.488 44.5541 194.884 45.6763C194.281 46.7913 193.432 47.6791 192.338 48.3396C191.251 48.993 189.973 49.3126 188.503 49.2984ZM188.503 46.9547C189.398 46.9547 190.2 46.7309 190.911 46.2835C191.628 45.8361 192.192 45.2359 192.604 44.4831C193.023 43.7302 193.233 42.8922 193.233 41.9689C193.233 41.0669 193.031 40.2466 192.626 39.5079C192.228 38.7622 191.678 38.1692 190.974 37.7288C190.278 37.2885 189.483 37.0683 188.588 37.0683C187.913 37.0683 187.285 37.2032 186.702 37.4731C186.12 37.7359 185.609 38.0981 185.168 38.5598C184.735 39.0214 184.394 39.5505 184.146 40.1471C183.897 40.7366 183.773 41.3581 183.773 42.0115C183.773 42.878 183.975 43.6876 184.38 44.4405C184.792 45.1933 185.353 45.8005 186.063 46.2622C186.781 46.7238 187.594 46.9547 188.503 46.9547ZM207.096 49.2984C205.491 49.2984 204.123 48.8616 202.994 47.988C201.865 47.1074 201.002 45.8325 200.405 44.1635C199.809 42.4873 199.51 40.4632 199.51 38.091C199.51 35.7331 199.809 33.7196 200.405 32.0505C201.009 30.3744 201.876 29.096 203.005 28.2153C204.141 27.3275 205.505 26.8836 207.096 26.8836C208.687 26.8836 210.047 27.3275 211.176 28.2153C212.312 29.096 213.179 30.3744 213.775 32.0505C214.379 33.7196 214.681 35.7331 214.681 38.091C214.681 40.4632 214.383 42.4873 213.786 44.1635C213.189 45.8325 212.327 47.1074 211.197 47.988C210.068 48.8616 208.701 49.2984 207.096 49.2984ZM207.096 46.9547C208.687 46.9547 209.922 46.1876 210.803 44.6535C211.684 43.1194 212.124 40.9319 212.124 38.091C212.124 36.2018 211.922 34.5932 211.517 33.265C211.119 31.9369 210.544 30.9248 209.791 30.2288C209.045 29.5328 208.147 29.1848 207.096 29.1848C205.519 29.1848 204.287 29.9625 203.399 31.5179C202.511 33.0662 202.067 35.2572 202.067 38.091C202.067 39.9802 202.266 41.5854 202.664 42.9064C203.062 44.2274 203.633 45.2324 204.379 45.9213C205.132 46.6102 206.037 46.9547 207.096 46.9547ZM225.377 55.4774C224.162 55.4774 223.118 55.3211 222.245 55.0086C221.371 54.7032 220.643 54.2984 220.061 53.7942C219.486 53.297 219.028 52.7643 218.687 52.1961L220.689 50.7899C220.917 51.0882 221.204 51.4291 221.552 51.8126C221.9 52.2032 222.376 52.5406 222.98 52.8247C223.591 53.1159 224.39 53.2615 225.377 53.2615C226.698 53.2615 227.788 52.9419 228.648 52.3027C229.507 51.6635 229.937 50.6621 229.937 49.2984V45.9746H229.724C229.539 46.2729 229.276 46.6422 228.935 47.0825C228.601 47.5157 228.118 47.9028 227.486 48.2437C226.861 48.5775 226.016 48.7444 224.951 48.7444C223.63 48.7444 222.444 48.4319 221.393 47.8069C220.349 47.1819 219.521 46.2729 218.91 45.0797C218.307 43.8865 218.005 42.4376 218.005 40.7331C218.005 39.0569 218.3 37.5974 218.889 36.3545C219.479 35.1045 220.299 34.1386 221.35 33.4568C222.401 32.7679 223.616 32.4234 224.993 32.4234C226.059 32.4234 226.904 32.601 227.529 32.9561C228.161 33.3041 228.644 33.7018 228.978 34.1493C229.319 34.5896 229.581 34.9518 229.766 35.2359H230.022V32.6365H232.451V49.4689C232.451 50.8751 232.131 52.0186 231.492 52.8993C230.86 53.7871 230.008 54.4369 228.935 54.8488C227.87 55.2679 226.684 55.4774 225.377 55.4774ZM225.292 46.4859C226.3 46.4859 227.153 46.2551 227.849 45.7934C228.545 45.3318 229.074 44.6677 229.436 43.8013C229.798 42.9348 229.979 41.8979 229.979 40.6905C229.979 39.5115 229.802 38.471 229.447 37.569C229.091 36.667 228.566 35.9604 227.87 35.449C227.174 34.9376 226.314 34.6819 225.292 34.6819C224.226 34.6819 223.339 34.9518 222.628 35.4916C221.925 36.0314 221.396 36.7558 221.041 37.6649C220.693 38.574 220.519 39.5825 220.519 40.6905C220.519 41.8268 220.697 42.8318 221.052 43.7054C221.414 44.5719 221.947 45.2537 222.65 45.7508C223.36 46.2409 224.241 46.4859 225.292 46.4859ZM169.81 178.921L165.194 177L161.222 180.038L161.867 184.996L166.484 186.917L170.455 183.879L169.81 178.921ZM127.847 187.727L129.094 186.536L133.138 187.722L129.905 185.855V184.434L127.847 187.727ZM160.933 200.862L163.901 202.62L160.127 201.39L159.765 201.715L160.95 199.393L160.933 200.862ZM137.807 313.049L161.792 317.175L153 323.476L153.095 323.609L137.807 313.049ZM138.098 346.686L162.227 338L170.494 360.964L184.05 338.132L170.476 347.861L153.576 324.28L138.098 346.686ZM220.259 328.082V330H234.023V327.656H223.881V327.486L228.781 322.244C230.031 320.902 231.008 319.766 231.711 318.835C232.421 317.898 232.918 317.049 233.202 316.289C233.494 315.522 233.639 314.737 233.639 313.935C233.639 312.812 233.359 311.793 232.798 310.877C232.237 309.961 231.462 309.233 230.475 308.693C229.488 308.153 228.355 307.884 227.077 307.884C225.805 307.884 224.658 308.153 223.636 308.693C222.62 309.233 221.817 309.986 221.228 310.952C220.638 311.918 220.344 313.04 220.344 314.318H222.858C222.858 313.487 223.025 312.763 223.359 312.145C223.7 311.527 224.179 311.048 224.797 310.707C225.422 310.359 226.153 310.185 226.991 310.185C227.78 310.185 228.49 310.337 229.122 310.643C229.754 310.948 230.251 311.381 230.614 311.942C230.983 312.504 231.168 313.168 231.168 313.935C231.168 314.602 231.033 315.241 230.763 315.852C230.5 316.456 230.095 317.102 229.548 317.791C229.001 318.473 228.305 319.276 227.46 320.199L220.259 328.082ZM241.438 328.988C242.567 329.862 243.934 330.298 245.539 330.298C247.144 330.298 248.511 329.862 249.641 328.988C250.77 328.107 251.633 326.832 252.229 325.163C252.826 323.487 253.124 321.463 253.124 319.091C253.124 316.733 252.822 314.719 252.219 313.05C251.622 311.374 250.756 310.096 249.619 309.215C248.49 308.327 247.13 307.884 245.539 307.884C243.948 307.884 242.585 308.327 241.448 309.215C240.319 310.096 239.452 311.374 238.849 313.05C238.252 314.719 237.954 316.733 237.954 319.091C237.954 321.463 238.252 323.487 238.849 325.163C239.445 326.832 240.308 328.107 241.438 328.988ZM249.246 325.653C248.366 327.188 247.13 327.955 245.539 327.955C244.481 327.955 243.575 327.61 242.822 326.921C242.077 326.232 241.505 325.227 241.107 323.906C240.71 322.585 240.511 320.98 240.511 319.091C240.511 316.257 240.955 314.066 241.842 312.518C242.73 310.962 243.962 310.185 245.539 310.185C246.59 310.185 247.489 310.533 248.234 311.229C248.987 311.925 249.562 312.937 249.96 314.265C250.365 315.593 250.567 317.202 250.567 319.091C250.567 321.932 250.127 324.119 249.246 325.653ZM260.188 328.988C261.317 329.862 262.684 330.298 264.289 330.298C265.894 330.298 267.261 329.862 268.391 328.988C269.52 328.107 270.383 326.832 270.979 325.163C271.576 323.487 271.874 321.463 271.874 319.091C271.874 316.733 271.572 314.719 270.969 313.05C270.372 311.374 269.506 310.096 268.369 309.215C267.24 308.327 265.88 307.884 264.289 307.884C262.698 307.884 261.335 308.327 260.198 309.215C259.069 310.096 258.202 311.374 257.599 313.05C257.002 314.719 256.704 316.733 256.704 319.091C256.704 321.463 257.002 323.487 257.599 325.163C258.195 326.832 259.058 328.107 260.188 328.988ZM267.996 325.653C267.116 327.188 265.88 327.955 264.289 327.955C263.231 327.955 262.325 327.61 261.572 326.921C260.827 326.232 260.255 325.227 259.857 323.906C259.46 322.585 259.261 320.98 259.261 319.091C259.261 316.257 259.705 314.066 260.592 312.518C261.48 310.962 262.712 310.185 264.289 310.185C265.34 310.185 266.239 310.533 266.984 311.229C267.737 311.925 268.312 312.937 268.71 314.265C269.115 315.593 269.317 317.202 269.317 319.091C269.317 321.932 268.877 324.119 267.996 325.653ZM279.438 336.009C280.312 336.321 281.356 336.477 282.57 336.477C283.877 336.477 285.063 336.268 286.129 335.849C287.201 335.437 288.053 334.787 288.685 333.899C289.325 333.018 289.644 331.875 289.644 330.469V313.636H287.215V316.236H286.96C286.775 315.952 286.512 315.589 286.171 315.149C285.837 314.702 285.354 314.304 284.722 313.956C284.097 313.601 283.252 313.423 282.187 313.423C280.809 313.423 279.594 313.768 278.543 314.457C277.492 315.138 276.672 316.104 276.082 317.354C275.493 318.597 275.198 320.057 275.198 321.733C275.198 323.438 275.5 324.886 276.104 326.08C276.714 327.273 277.542 328.182 278.586 328.807C279.637 329.432 280.823 329.744 282.144 329.744C283.21 329.744 284.055 329.577 284.68 329.244C285.312 328.903 285.795 328.516 286.129 328.082C286.469 327.642 286.732 327.273 286.917 326.974H287.13V330.298C287.13 331.662 286.7 332.663 285.841 333.303C284.982 333.942 283.891 334.261 282.57 334.261C281.583 334.261 280.784 334.116 280.173 333.825C279.57 333.54 279.094 333.203 278.746 332.812C278.398 332.429 278.11 332.088 277.883 331.79L275.88 333.196C276.221 333.764 276.679 334.297 277.254 334.794C277.837 335.298 278.565 335.703 279.438 336.009ZM285.042 326.793C284.346 327.255 283.494 327.486 282.485 327.486C281.434 327.486 280.553 327.241 279.843 326.751C279.14 326.254 278.607 325.572 278.245 324.705C277.89 323.832 277.712 322.827 277.712 321.69C277.712 320.582 277.886 319.574 278.234 318.665C278.589 317.756 279.119 317.031 279.822 316.491C280.532 315.952 281.42 315.682 282.485 315.682C283.508 315.682 284.367 315.938 285.063 316.449C285.759 316.96 286.285 317.667 286.64 318.569C286.995 319.471 287.173 320.511 287.173 321.69C287.173 322.898 286.991 323.935 286.629 324.801C286.267 325.668 285.738 326.332 285.042 326.793Z" fill="white"/>
</svg>
