<svg width="300" height="351" viewBox="0 0 300 351" fill="none" xmlns="http://www.w3.org/2000/svg">
<path fill-rule="evenodd" clip-rule="evenodd" d="M185.818 21.9034C186.713 22.2301 187.608 22.4006 188.503 22.4148C189.973 22.429 191.251 22.1094 192.338 21.456C193.432 20.7955 194.281 19.9077 194.884 18.7926C195.488 17.6705 195.79 16.4347 195.79 15.0852C195.79 13.679 195.477 12.4325 194.852 11.3459C194.227 10.2521 193.396 9.39631 192.359 8.77841C191.322 8.15341 190.179 7.84091 188.929 7.84091C188.183 7.84091 187.477 7.9581 186.809 8.19247C186.141 8.42685 185.531 8.76065 184.977 9.19389C184.43 9.62003 183.957 10.1349 183.56 10.7386H183.389C183.396 8.08239 183.883 6.01918 184.849 4.54901C185.822 3.07884 187.153 2.34375 188.844 2.34375C189.994 2.34375 190.918 2.6669 191.614 3.31321C192.31 3.95952 192.778 4.77273 193.02 5.75284H195.619C195.442 4.62358 195.051 3.62571 194.447 2.75923C193.844 1.89276 193.062 1.21804 192.104 0.735086C191.152 0.245029 190.065 0 188.844 0C187.615 0 186.511 0.266335 185.531 0.799005C184.558 1.33168 183.727 2.11293 183.038 3.14276C182.349 4.16548 181.823 5.42614 181.461 6.92472C181.099 8.41619 180.918 10.1278 180.918 12.0597C180.918 14.0767 181.141 15.7528 181.589 17.0881C182.036 18.4162 182.629 19.4709 183.368 20.2521C184.107 21.0263 184.923 21.5767 185.818 21.9034ZM190.911 19.3999C190.2 19.8473 189.398 20.071 188.503 20.071C187.594 20.071 186.781 19.8402 186.063 19.3786C185.353 18.9169 184.792 18.3097 184.38 17.5568C183.975 16.804 183.773 15.9943 183.773 15.1278C183.773 14.4744 183.897 13.853 184.146 13.2635C184.394 12.6669 184.735 12.1378 185.168 11.6761C185.609 11.2145 186.12 10.8523 186.702 10.5895C187.285 10.3196 187.913 10.1847 188.588 10.1847C189.483 10.1847 190.278 10.4048 190.974 10.8452C191.678 11.2855 192.228 11.8786 192.626 12.6243C193.031 13.3629 193.233 14.1832 193.233 15.0852C193.233 16.0085 193.023 16.8466 192.604 17.5994C192.192 18.3523 191.628 18.9524 190.911 19.3999ZM202.994 21.1044C204.123 21.978 205.491 22.4148 207.096 22.4148C208.701 22.4148 210.068 21.978 211.197 21.1044C212.327 20.2237 213.189 18.9489 213.786 17.2798C214.383 15.6037 214.681 13.5795 214.681 11.2074C214.681 8.84943 214.379 6.83594 213.775 5.1669C213.179 3.49077 212.312 2.21236 211.176 1.33168C210.047 0.443892 208.687 0 207.096 0C205.505 0 204.141 0.443892 203.005 1.33168C201.876 2.21236 201.009 3.49077 200.405 5.1669C199.809 6.83594 199.51 8.84943 199.51 11.2074C199.51 13.5795 199.809 15.6037 200.405 17.2798C201.002 18.9489 201.865 20.2237 202.994 21.1044ZM210.803 17.7699C209.922 19.304 208.687 20.071 207.096 20.071C206.037 20.071 205.132 19.7266 204.379 19.0376C203.633 18.3487 203.062 17.3438 202.664 16.0227C202.266 14.7017 202.067 13.0966 202.067 11.2074C202.067 8.37358 202.511 6.18253 203.399 4.63423C204.287 3.07884 205.519 2.30114 207.096 2.30114C208.147 2.30114 209.045 2.64915 209.791 3.34517C210.544 4.04119 211.119 5.05327 211.517 6.38139C211.922 7.70952 212.124 9.31818 212.124 11.2074C212.124 14.0483 211.684 16.2358 210.803 17.7699ZM222.245 28.125C223.118 28.4375 224.162 28.5938 225.377 28.5938C226.684 28.5938 227.87 28.3842 228.935 27.9652C230.008 27.5533 230.86 26.9034 231.492 26.0156C232.131 25.1349 232.451 23.9915 232.451 22.5852V5.75284H230.022V8.35227H229.766C229.581 8.06818 229.319 7.70597 228.978 7.26562C228.644 6.81818 228.161 6.42046 227.529 6.07244C226.904 5.71733 226.059 5.53977 224.993 5.53977C223.616 5.53977 222.401 5.88423 221.35 6.57315C220.299 7.25497 219.479 8.22088 218.889 9.47088C218.3 10.7138 218.005 12.1733 218.005 13.8494C218.005 15.554 218.307 17.0028 218.91 18.196C219.521 19.3892 220.349 20.2983 221.393 20.9233C222.444 21.5483 223.63 21.8608 224.951 21.8608C226.016 21.8608 226.861 21.6939 227.486 21.3601C228.118 21.0192 228.601 20.6321 228.935 20.1989C229.276 19.7585 229.539 19.3892 229.724 19.0909H229.937V22.4148C229.937 23.7784 229.507 24.7798 228.648 25.419C227.788 26.0582 226.698 26.3778 225.377 26.3778C224.39 26.3778 223.591 26.2322 222.98 25.9411C222.376 25.657 221.9 25.3196 221.552 24.929C221.204 24.5455 220.917 24.2045 220.689 23.9062L218.687 25.3125C219.028 25.8807 219.486 26.4134 220.061 26.9105C220.643 27.4148 221.371 27.8196 222.245 28.125ZM227.849 18.9098C227.153 19.3714 226.3 19.6023 225.292 19.6023C224.241 19.6023 223.36 19.3572 222.65 18.8672C221.947 18.37 221.414 17.6882 221.052 16.8217C220.697 15.9482 220.519 14.9432 220.519 13.8068C220.519 12.6989 220.693 11.6903 221.041 10.7813C221.396 9.87216 221.925 9.14773 222.628 8.60795C223.339 8.06818 224.226 7.7983 225.292 7.7983C226.314 7.7983 227.174 8.05398 227.87 8.56534C228.566 9.0767 229.091 9.78338 229.447 10.6854C229.802 11.5874 229.979 12.6278 229.979 13.8068C229.979 15.0142 229.798 16.0511 229.436 16.9176C229.074 17.7841 228.545 18.4482 227.849 18.9098ZM149.519 213.117H0V210.117H148.252L65 75.1165H235L151.748 210.117H300V213.117H150.481L235 350.171H65.0001L149.519 213.117ZM73.5098 81.3355L115.479 148.867H122.62L122.651 148.817L124.044 148.867H131.819L134.235 147.471L136.652 148.867H145.098L146.202 148.047L148.097 148.867H152.453L153.583 146.941L158.583 146.976L159.657 148.867H161.598L165.194 146.116L169.81 148.037L169.918 148.867H172.058L174.184 147.19L178.389 148.867H184.221L226.19 81.3355H73.5098ZM226.49 343.952L150.15 221.117L73.8099 343.952H102.958L89 324.476L113.384 307L130.86 331.384L113.325 343.952H142.205L134 321.162L135.22 320.723L112 304.684L129.05 280L135.224 284.264L140.086 256L169.652 261.086L165.049 287.84L177.384 279L194.86 303.384L186.25 309.555L211.112 324.316L199.453 343.952H226.49ZM185.421 343.952H159.263L172.388 339.226L171.009 335.395L185.421 343.952ZM137.807 286.049L161.792 290.175L153 296.476L153.095 296.609L137.807 286.049ZM138.098 319.686L162.227 311L170.494 333.964L184.05 311.132L170.476 320.86L153.576 297.28L138.098 319.686ZM220.259 301.082V303H234.023V300.656H223.881V300.486L228.781 295.244C230.031 293.902 231.008 292.766 231.711 291.835C232.421 290.898 232.918 290.049 233.202 289.289C233.494 288.522 233.639 287.737 233.639 286.935C233.639 285.812 233.359 284.793 232.798 283.877C232.237 282.961 231.462 282.233 230.475 281.693C229.488 281.153 228.355 280.884 227.077 280.884C225.805 280.884 224.658 281.153 223.636 281.693C222.62 282.233 221.817 282.986 221.228 283.952C220.638 284.918 220.344 286.04 220.344 287.318H222.858C222.858 286.487 223.025 285.763 223.359 285.145C223.7 284.527 224.179 284.048 224.797 283.707C225.422 283.359 226.153 283.185 226.991 283.185C227.78 283.185 228.49 283.337 229.122 283.643C229.754 283.948 230.251 284.381 230.614 284.942C230.983 285.504 231.168 286.168 231.168 286.935C231.168 287.602 231.033 288.241 230.763 288.852C230.5 289.456 230.095 290.102 229.548 290.791C229.001 291.473 228.305 292.276 227.46 293.199L220.259 301.082ZM241.438 301.988C242.567 302.862 243.934 303.298 245.539 303.298C247.144 303.298 248.511 302.862 249.641 301.988C250.77 301.107 251.633 299.832 252.229 298.163C252.826 296.487 253.124 294.463 253.124 292.091C253.124 289.733 252.822 287.719 252.219 286.05C251.622 284.374 250.756 283.096 249.619 282.215C248.49 281.327 247.13 280.884 245.539 280.884C243.948 280.884 242.585 281.327 241.448 282.215C240.319 283.096 239.452 284.374 238.849 286.05C238.252 287.719 237.954 289.733 237.954 292.091C237.954 294.463 238.252 296.487 238.849 298.163C239.445 299.832 240.308 301.107 241.438 301.988ZM249.246 298.653C248.366 300.188 247.13 300.955 245.539 300.955C244.481 300.955 243.575 300.61 242.822 299.921C242.077 299.232 241.505 298.227 241.107 296.906C240.71 295.585 240.511 293.98 240.511 292.091C240.511 289.257 240.955 287.066 241.842 285.518C242.73 283.962 243.962 283.185 245.539 283.185C246.59 283.185 247.489 283.533 248.234 284.229C248.987 284.925 249.562 285.937 249.96 287.265C250.365 288.593 250.567 290.202 250.567 292.091C250.567 294.932 250.127 297.119 249.246 298.653ZM260.188 301.988C261.317 302.862 262.684 303.298 264.289 303.298C265.894 303.298 267.261 302.862 268.391 301.988C269.52 301.107 270.383 299.832 270.979 298.163C271.576 296.487 271.874 294.463 271.874 292.091C271.874 289.733 271.572 287.719 270.969 286.05C270.372 284.374 269.506 283.096 268.369 282.215C267.24 281.327 265.88 280.884 264.289 280.884C262.698 280.884 261.335 281.327 260.198 282.215C259.069 283.096 258.202 284.374 257.599 286.05C257.002 287.719 256.704 289.733 256.704 292.091C256.704 294.463 257.002 296.487 257.599 298.163C258.195 299.832 259.058 301.107 260.188 301.988ZM267.996 298.653C267.116 300.188 265.88 300.955 264.289 300.955C263.231 300.955 262.325 300.61 261.572 299.921C260.827 299.232 260.255 298.227 259.857 296.906C259.46 295.585 259.261 293.98 259.261 292.091C259.261 289.257 259.705 287.066 260.592 285.518C261.48 283.962 262.712 283.185 264.289 283.185C265.34 283.185 266.239 283.533 266.984 284.229C267.737 284.925 268.312 285.937 268.71 287.265C269.115 288.593 269.317 290.202 269.317 292.091C269.317 294.932 268.877 297.119 267.996 298.653ZM279.438 309.009C280.312 309.321 281.356 309.477 282.57 309.477C283.877 309.477 285.063 309.268 286.129 308.849C287.201 308.437 288.053 307.787 288.685 306.899C289.325 306.018 289.644 304.875 289.644 303.469V286.636H287.215V289.236H286.96C286.775 288.952 286.512 288.589 286.171 288.149C285.837 287.702 285.354 287.304 284.722 286.956C284.097 286.601 283.252 286.423 282.187 286.423C280.809 286.423 279.594 286.768 278.543 287.457C277.492 288.138 276.672 289.104 276.082 290.354C275.493 291.597 275.198 293.057 275.198 294.733C275.198 296.438 275.5 297.886 276.104 299.08C276.714 300.273 277.542 301.182 278.586 301.807C279.637 302.432 280.823 302.744 282.144 302.744C283.21 302.744 284.055 302.577 284.68 302.244C285.312 301.903 285.795 301.516 286.129 301.082C286.469 300.642 286.732 300.273 286.917 299.974H287.13V303.298C287.13 304.662 286.7 305.663 285.841 306.303C284.982 306.942 283.891 307.261 282.57 307.261C281.583 307.261 280.784 307.116 280.173 306.825C279.57 306.54 279.094 306.203 278.746 305.812C278.398 305.429 278.11 305.088 277.883 304.79L275.88 306.196C276.221 306.764 276.679 307.297 277.254 307.794C277.837 308.298 278.565 308.703 279.438 309.009ZM285.042 299.793C284.346 300.255 283.494 300.486 282.485 300.486C281.434 300.486 280.553 300.241 279.843 299.751C279.14 299.254 278.607 298.572 278.245 297.705C277.89 296.832 277.712 295.827 277.712 294.69C277.712 293.582 277.886 292.574 278.234 291.665C278.589 290.756 279.119 290.031 279.822 289.491C280.532 288.952 281.42 288.682 282.485 288.682C283.508 288.682 284.367 288.938 285.063 289.449C285.759 289.96 286.285 290.667 286.64 291.569C286.995 292.471 287.173 293.511 287.173 294.69C287.173 295.898 286.991 296.935 286.629 297.801C286.267 298.668 285.738 299.332 285.042 299.793Z" fill="white"/>
</svg>
