<svg width="250" height="279" viewBox="0 0 250 279" fill="none" xmlns="http://www.w3.org/2000/svg">
<path fill-rule="evenodd" clip-rule="evenodd" d="M31.9951 3H200.001L190.118 276.902L191.113 276.999L200.996 3.09658L200.001 3V2H31.9951V3ZM39.3378 206.5L34.9179 84H43.4305L47.6312 206.5H39.3378ZM38.3751 207.5L40.8827 276.999L41.878 276.902L39.3739 207.5H47.6655L49.7058 266.999L50.7006 266.897L48.6638 207.5H100.613L103 209.887L105.887 207L103 204.113L100.613 206.5H48.6295L46.8978 156H48.8958V153H46.7949L44.4288 84H99.6133L102 86.3867L104.887 83.5L102 80.6133L99.6133 83H44.3945L41.9941 12.9991H190.006L181.3 266.898L182.295 266.999L191.001 13.1007L190.006 12.9991V11.9991H41.9939V12.9988L40.9992 13.1004L43.3962 83H34.8818L31.9953 3.00019L31 3.09677L33.883 83H2V84H33.9191L38.339 206.5H3V207.5H38.3751ZM118.469 276.592H41.878V275.592H118.469H190.118V276.592H118.469ZM118.177 266.646H50.7006V265.646H118.177H181.3V266.646H118.177ZM197.685 107.995H236.999V153.995H196V154.995H238V153.995H237.999V107H237.159V106.995H197.685V107.995ZM248 97V165V165.643V166H196V165H247V97H248ZM246.959 98.43H198.086V97.43H246.959V98.43ZM54.6875 156H60.4792V153H54.6875V156ZM66.2708 156H72.0625V153H66.2708V156ZM77.8542 156H83.6458V153H77.8542V156ZM89.4375 156H95.2292V153H89.4375V156ZM101.021 156H106.812V153H101.021V156ZM112.604 156H118.396V153H112.604V156ZM124.188 156H129.979V153H124.188V156ZM135.771 156H141.562V153H135.771V156ZM147.354 156H153.146V153H147.354V156ZM158.937 156H164.729V153H158.937V156ZM170.521 156H176.312V153H170.521V156ZM182.104 156H185V153H182.104V156Z" fill="white"/>
<path d="M31.9951 3H30.4951V4.5H31.9951V3ZM190.118 276.902L188.619 276.848L188.568 278.259L189.973 278.395L190.118 276.902ZM191.113 276.999L190.968 278.492L192.555 278.646L192.612 277.053L191.113 276.999ZM200.996 3.09658L202.495 3.15067L202.546 1.73992L201.141 1.60359L200.996 3.09658ZM200.001 2H201.501V0.5H200.001V2ZM31.9951 2V0.5H30.4951V2H31.9951ZM34.9179 84V82.5H33.3628L33.4189 84.0541L34.9179 84ZM39.3378 206.5L37.8388 206.554L37.891 208H39.3378V206.5ZM43.4305 84L44.9296 83.9486L44.8799 82.5H43.4305V84ZM47.6312 206.5V208H49.1835L49.1303 206.449L47.6312 206.5ZM40.8827 276.999L39.3837 277.053L39.4411 278.646L41.0276 278.492L40.8827 276.999ZM38.3751 207.5L39.8741 207.446L39.8219 206H38.3751V207.5ZM41.878 276.902L42.0229 278.395L43.4279 278.259L43.377 276.848L41.878 276.902ZM39.3739 207.5V206H37.8188L37.8749 207.554L39.3739 207.5ZM47.6655 207.5L49.1646 207.449L49.1149 206H47.6655V207.5ZM49.7058 266.999L48.2067 267.05L48.2617 268.654L49.8582 268.491L49.7058 266.999ZM50.7006 266.897L50.853 268.39L52.2478 268.247L52.1998 266.846L50.7006 266.897ZM48.6638 207.5V206H47.1115L47.1647 207.551L48.6638 207.5ZM100.613 207.5L101.674 206.439L101.235 206H100.613V207.5ZM103 209.887L101.939 210.947L103 212.008L104.061 210.947L103 209.887ZM105.887 207L106.947 208.061L108.008 207L106.947 205.939L105.887 207ZM103 204.113L104.061 203.053L103 201.992L101.939 203.053L103 204.113ZM100.613 206.5V208H101.235L101.674 207.561L100.613 206.5ZM48.6295 206.5L47.1304 206.551L47.1801 208H48.6295V206.5ZM46.8978 156V154.5H45.3455L45.3987 156.051L46.8978 156ZM48.8958 156V157.5H50.3958V156H48.8958ZM48.8958 153H50.3958V151.5H48.8958V153ZM46.7949 153L45.2958 153.051L45.3455 154.5H46.7949V153ZM44.4288 84V82.5H42.8765L42.9297 84.0514L44.4288 84ZM99.6133 84L100.674 82.9393L100.235 82.5H99.6133V84ZM102 86.3867L100.939 87.4474L102 88.5081L103.061 87.4474L102 86.3867ZM104.887 83.5L105.947 84.5607L107.008 83.5L105.947 82.4393L104.887 83.5ZM102 80.6133L103.061 79.5526L102 78.4919L100.939 79.5526L102 80.6133ZM99.6133 83V84.5H100.235L100.674 84.0607L99.6133 83ZM44.3945 83L42.8954 83.0514L42.9451 84.5H44.3945V83ZM41.9941 12.9991V11.4991H40.4417L40.4949 13.0506L41.9941 12.9991ZM181.3 266.898L179.801 266.846L179.753 268.248L181.148 268.39L181.3 266.898ZM182.295 266.999L182.143 268.492L183.739 268.655L183.794 267.051L182.295 266.999ZM191.001 13.1007L192.5 13.1521L192.548 11.7509L191.153 11.6085L191.001 13.1007ZM190.006 11.9991H191.506V10.4991H190.006V11.9991ZM41.9939 11.9991V10.4991H40.4939V11.9991H41.9939ZM41.9939 12.9988L42.1463 14.4911L43.4939 14.3535V12.9988H41.9939ZM40.9992 13.1004L40.8469 11.6082L39.452 11.7506L39.5001 13.1518L40.9992 13.1004ZM43.3962 83V84.5H44.9485L44.8953 82.9486L43.3962 83ZM34.8818 83L33.3828 83.0541L33.435 84.5H34.8818V83ZM31.9953 3.00019L33.4943 2.9461L33.4369 1.35326L31.8504 1.5072L31.9953 3.00019ZM31 3.09677L30.8551 1.60379L29.4501 1.74013L29.501 3.15086L31 3.09677ZM33.883 83V84.5H35.4381L35.382 82.9459L33.883 83ZM2 83V81.5H0.5V83H2ZM2 84H0.5V85.5H2V84ZM33.9191 84L35.4181 83.9459L35.3659 82.5H33.9191V84ZM38.339 206.5V208H39.8941L39.838 206.446L38.339 206.5ZM3 206.5V205H1.5V206.5H3ZM3 207.5H1.5V209H3V207.5ZM41.878 276.592H40.378V278.092H41.878V276.592ZM41.878 275.592V274.092H40.378V275.592H41.878ZM190.118 275.592H191.618V274.092H190.118V275.592ZM190.118 276.592V278.092H191.618V276.592H190.118ZM50.7006 266.646H49.2006V268.146H50.7006V266.646ZM50.7006 265.646V264.146H49.2006V265.646H50.7006ZM181.3 265.646H182.8V264.146H181.3V265.646ZM181.3 266.646V268.146H182.8V266.646H181.3ZM236.999 107.995H238.499V106.495H236.999V107.995ZM197.685 107.995H196.185V109.495H197.685V107.995ZM236.999 153.995V155.495H238.499V153.995H236.999ZM196 153.995V152.495H194.5V153.995H196ZM196 154.995H194.5V156.495H196V154.995ZM238 154.995V156.495H239.5V154.995H238ZM238 153.995H239.5V152.495H238V153.995ZM237.999 153.995H236.499V155.495H237.999V153.995ZM237.999 107H239.499V105.5H237.999V107ZM237.159 107H235.659V108.5H237.159V107ZM237.159 106.995H238.659V105.495H237.159V106.995ZM197.685 106.995V105.495H196.185V106.995H197.685ZM248 97H249.5V95.5H248V97ZM248 166V167.5H249.5V166H248ZM196 166H194.5V167.5H196V166ZM196 165V163.5H194.5V165H196ZM247 165V166.5H248.5V165H247ZM247 97V95.5H245.5V97H247ZM198.086 98.43H196.586V99.93H198.086V98.43ZM246.959 98.43V99.93H248.459V98.43H246.959ZM198.086 97.43V95.93H196.586V97.43H198.086ZM246.959 97.43H248.459V95.93H246.959V97.43ZM60.4792 156V157.5H61.9792V156H60.4792ZM54.6875 156H53.1875V157.5H54.6875V156ZM60.4792 153H61.9792V151.5H60.4792V153ZM54.6875 153V151.5H53.1875V153H54.6875ZM72.0625 156V157.5H73.5625V156H72.0625ZM66.2708 156H64.7708V157.5H66.2708V156ZM72.0625 153H73.5625V151.5H72.0625V153ZM66.2708 153V151.5H64.7708V153H66.2708ZM83.6458 156V157.5H85.1458V156H83.6458ZM77.8542 156H76.3542V157.5H77.8542V156ZM83.6458 153H85.1458V151.5H83.6458V153ZM77.8542 153V151.5H76.3542V153H77.8542ZM95.2292 156V157.5H96.7292V156H95.2292ZM89.4375 156H87.9375V157.5H89.4375V156ZM95.2292 153H96.7292V151.5H95.2292V153ZM89.4375 153V151.5H87.9375V153H89.4375ZM106.812 156V157.5H108.312V156H106.812ZM101.021 156H99.5208V157.5H101.021V156ZM106.812 153H108.312V151.5H106.812V153ZM101.021 153V151.5H99.5208V153H101.021ZM118.396 156V157.5H119.896V156H118.396ZM112.604 156H111.104V157.5H112.604V156ZM118.396 153H119.896V151.5H118.396V153ZM112.604 153V151.5H111.104V153H112.604ZM129.979 156V157.5H131.479V156H129.979ZM124.188 156H122.688V157.5H124.188V156ZM129.979 153H131.479V151.5H129.979V153ZM124.188 153V151.5H122.688V153H124.188ZM141.562 156V157.5H143.062V156H141.562ZM135.771 156H134.271V157.5H135.771V156ZM141.562 153H143.062V151.5H141.562V153ZM135.771 153V151.5H134.271V153H135.771ZM153.146 156V157.5H154.646V156H153.146ZM147.354 156H145.854V157.5H147.354V156ZM153.146 153H154.646V151.5H153.146V153ZM147.354 153V151.5H145.854V153H147.354ZM164.729 156V157.5H166.229V156H164.729ZM158.937 156H157.437V157.5H158.937V156ZM164.729 153H166.229V151.5H164.729V153ZM158.937 153V151.5H157.437V153H158.937ZM176.312 156V157.5H177.812V156H176.312ZM170.521 156H169.021V157.5H170.521V156ZM176.312 153H177.812V151.5H176.312V153ZM170.521 153V151.5H169.021V153H170.521ZM185 156V157.5H186.5V156H185ZM182.104 156H180.604V157.5H182.104V156ZM185 153H186.5V151.5H185V153ZM182.104 153V151.5H180.604V153H182.104ZM200.001 1.5H31.9951V4.5H200.001V1.5ZM191.617 276.956L201.5 3.05409L198.502 2.94591L188.619 276.848L191.617 276.956ZM191.258 275.506L190.262 275.409L189.973 278.395L190.968 278.492L191.258 275.506ZM199.497 3.04249L189.614 276.945L192.612 277.053L202.495 3.15067L199.497 3.04249ZM199.856 4.49299L200.851 4.58957L201.141 1.60359L200.146 1.50701L199.856 4.49299ZM198.501 2V3H201.501V2H198.501ZM31.9951 3.5H200.001V0.5H31.9951V3.5ZM33.4951 3V2H30.4951V3H33.4951ZM33.4189 84.0541L37.8388 206.554L40.8368 206.446L36.4169 83.9459L33.4189 84.0541ZM43.4305 82.5H34.9179V85.5H43.4305V82.5ZM49.1303 206.449L44.9296 83.9486L41.9314 84.0514L46.1321 206.551L49.1303 206.449ZM39.3378 208H47.6312V205H39.3378V208ZM42.3817 276.945L39.8741 207.446L36.8761 207.554L39.3837 277.053L42.3817 276.945ZM41.7331 275.41L40.7378 275.506L41.0276 278.492L42.0229 278.395L41.7331 275.41ZM37.8749 207.554L40.379 276.957L43.377 276.848L40.8729 207.446L37.8749 207.554ZM47.6655 206H39.3739V209H47.6655V206ZM51.2049 266.948L49.1646 207.449L46.1664 207.551L48.2067 267.05L51.2049 266.948ZM50.5483 265.405L49.5535 265.507L49.8582 268.491L50.853 268.39L50.5483 265.405ZM47.1647 207.551L49.2015 266.949L52.1998 266.846L50.1629 207.449L47.1647 207.551ZM100.613 206H48.6638V209H100.613V206ZM104.061 208.826L101.674 206.439L99.5526 208.561L101.939 210.947L104.061 208.826ZM104.826 205.939L101.939 208.826L104.061 210.947L106.947 208.061L104.826 205.939ZM101.939 205.174L104.826 208.061L106.947 205.939L104.061 203.053L101.939 205.174ZM101.674 207.561L104.061 205.174L101.939 203.053L99.5526 205.439L101.674 207.561ZM48.6295 208H100.613V205H48.6295V208ZM45.3987 156.051L47.1304 206.551L50.1286 206.449L48.3969 155.949L45.3987 156.051ZM48.8958 154.5H46.8978V157.5H48.8958V154.5ZM47.3958 153V156H50.3958V153H47.3958ZM46.7949 154.5H48.8958V151.5H46.7949V154.5ZM42.9297 84.0514L45.2958 153.051L48.294 152.949L45.9279 83.9486L42.9297 84.0514ZM99.6133 82.5H44.4288V85.5H99.6133V82.5ZM103.061 85.3261L100.674 82.9393L98.5526 85.0607L100.939 87.4474L103.061 85.3261ZM103.826 82.4393L100.939 85.3261L103.061 87.4474L105.947 84.5607L103.826 82.4393ZM100.939 81.6739L103.826 84.5607L105.947 82.4393L103.061 79.5526L100.939 81.6739ZM100.674 84.0607L103.061 81.6739L100.939 79.5526L98.5526 81.9393L100.674 84.0607ZM44.3945 84.5H99.6133V81.5H44.3945V84.5ZM40.4949 13.0506L42.8954 83.0514L45.8936 82.9486L43.4932 12.9477L40.4949 13.0506ZM190.006 11.4991H41.9941V14.4991H190.006V11.4991ZM182.799 266.949L191.505 13.0505L188.507 12.9477L179.801 266.846L182.799 266.949ZM182.447 265.507L181.453 265.406L181.148 268.39L182.143 268.492L182.447 265.507ZM189.502 13.0493L180.796 266.948L183.794 267.051L192.5 13.1521L189.502 13.0493ZM189.854 14.4914L190.848 14.593L191.153 11.6085L190.158 11.5069L189.854 14.4914ZM188.506 11.9991V12.9991H191.506V11.9991H188.506ZM41.9939 13.4991H190.006V10.4991H41.9939V13.4991ZM43.4939 12.9988V11.9991H40.4939V12.9988H43.4939ZM41.1516 14.5927L42.1463 14.4911L41.8416 11.5066L40.8469 11.6082L41.1516 14.5927ZM44.8953 82.9486L42.4983 13.049L39.5001 13.1518L41.8971 83.0514L44.8953 82.9486ZM34.8818 84.5H43.3962V81.5H34.8818V84.5ZM30.4963 3.05428L33.3828 83.0541L36.3808 82.9459L33.4943 2.9461L30.4963 3.05428ZM31.1449 4.58976L32.1402 4.49318L31.8504 1.5072L30.8551 1.60379L31.1449 4.58976ZM35.382 82.9459L32.499 3.04269L29.501 3.15086L32.384 83.0541L35.382 82.9459ZM2 84.5H33.883V81.5H2V84.5ZM3.5 84V83H0.5V84H3.5ZM33.9191 82.5H2V85.5H33.9191V82.5ZM39.838 206.446L35.4181 83.9459L32.4201 84.0541L36.84 206.554L39.838 206.446ZM3 208H38.339V205H3V208ZM4.5 207.5V206.5H1.5V207.5H4.5ZM38.3751 206H3V209H38.3751V206ZM41.878 278.092H118.469V275.092H41.878V278.092ZM40.378 275.592V276.592H43.378V275.592H40.378ZM118.469 274.092H41.878V277.092H118.469V274.092ZM190.118 274.092H118.469V277.092H190.118V274.092ZM191.618 276.592V275.592H188.618V276.592H191.618ZM118.469 278.092H190.118V275.092H118.469V278.092ZM50.7006 268.146H118.177V265.146H50.7006V268.146ZM49.2006 265.646V266.646H52.2006V265.646H49.2006ZM118.177 264.146H50.7006V267.146H118.177V264.146ZM181.3 264.146H118.177V267.146H181.3V264.146ZM182.8 266.646V265.646H179.8V266.646H182.8ZM118.177 268.146H181.3V265.146H118.177V268.146ZM236.999 106.495H197.685V109.495H236.999V106.495ZM238.499 153.995V107.995H235.499V153.995H238.499ZM196 155.495H236.999V152.495H196V155.495ZM197.5 154.995V153.995H194.5V154.995H197.5ZM238 153.495H196V156.495H238V153.495ZM236.5 153.995V154.995H239.5V153.995H236.5ZM237.999 155.495H238V152.495H237.999V155.495ZM236.499 107V153.995H239.499V107H236.499ZM237.159 108.5H237.999V105.5H237.159V108.5ZM235.659 106.995V107H238.659V106.995H235.659ZM197.685 108.495H237.159V105.495H197.685V108.495ZM199.185 107.995V106.995H196.185V107.995H199.185ZM249.5 165V97H246.5V165H249.5ZM249.5 165.643V165H246.5V165.643H249.5ZM249.5 166V165.643H246.5V166H249.5ZM196 167.5H248V164.5H196V167.5ZM194.5 165V166H197.5V165H194.5ZM247 163.5H196V166.5H247V163.5ZM245.5 97V165H248.5V97H245.5ZM248 95.5H247V98.5H248V95.5ZM198.086 99.93H246.959V96.93H198.086V99.93ZM196.586 97.43V98.43H199.586V97.43H196.586ZM246.959 95.93H198.086V98.93H246.959V95.93ZM248.459 98.43V97.43H245.459V98.43H248.459ZM60.4792 154.5H54.6875V157.5H60.4792V154.5ZM58.9792 153V156H61.9792V153H58.9792ZM54.6875 154.5H60.4792V151.5H54.6875V154.5ZM56.1875 156V153H53.1875V156H56.1875ZM72.0625 154.5H66.2708V157.5H72.0625V154.5ZM70.5625 153V156H73.5625V153H70.5625ZM66.2708 154.5H72.0625V151.5H66.2708V154.5ZM67.7708 156V153H64.7708V156H67.7708ZM83.6458 154.5H77.8542V157.5H83.6458V154.5ZM82.1458 153V156H85.1458V153H82.1458ZM77.8542 154.5H83.6458V151.5H77.8542V154.5ZM79.3542 156V153H76.3542V156H79.3542ZM95.2292 154.5H89.4375V157.5H95.2292V154.5ZM93.7292 153V156H96.7292V153H93.7292ZM89.4375 154.5H95.2292V151.5H89.4375V154.5ZM90.9375 156V153H87.9375V156H90.9375ZM106.812 154.5H101.021V157.5H106.812V154.5ZM105.312 153V156H108.312V153H105.312ZM101.021 154.5H106.812V151.5H101.021V154.5ZM102.521 156V153H99.5208V156H102.521ZM118.396 154.5H112.604V157.5H118.396V154.5ZM116.896 153V156H119.896V153H116.896ZM112.604 154.5H118.396V151.5H112.604V154.5ZM114.104 156V153H111.104V156H114.104ZM129.979 154.5H124.188V157.5H129.979V154.5ZM128.479 153V156H131.479V153H128.479ZM124.188 154.5H129.979V151.5H124.188V154.5ZM125.688 156V153H122.688V156H125.688ZM141.562 154.5H135.771V157.5H141.562V154.5ZM140.062 153V156H143.062V153H140.062ZM135.771 154.5H141.562V151.5H135.771V154.5ZM137.271 156V153H134.271V156H137.271ZM153.146 154.5H147.354V157.5H153.146V154.5ZM151.646 153V156H154.646V153H151.646ZM147.354 154.5H153.146V151.5H147.354V154.5ZM148.854 156V153H145.854V156H148.854ZM164.729 154.5H158.937V157.5H164.729V154.5ZM163.229 153V156H166.229V153H163.229ZM158.937 154.5H164.729V151.5H158.937V154.5ZM160.437 156V153H157.437V156H160.437ZM176.312 154.5H170.521V157.5H176.312V154.5ZM174.812 153V156H177.812V153H174.812ZM170.521 154.5H176.312V151.5H170.521V154.5ZM172.021 156V153H169.021V156H172.021ZM185 154.5H182.104V157.5H185V154.5ZM183.5 153V156H186.5V153H183.5ZM182.104 154.5H185V151.5H182.104V154.5ZM183.604 156V153H180.604V156H183.604Z" fill="white"/>
</svg>
