<svg width="221" height="279" viewBox="0 0 221 279" fill="none" xmlns="http://www.w3.org/2000/svg">
<path fill-rule="evenodd" clip-rule="evenodd" d="M2.99508 3H171.001L161.118 276.902L162.113 276.999L171.996 3.09658L171.001 3V2H2.99508V3ZM12.878 276.902L2.99532 3.00019L2 3.09677L11.8827 276.999L12.878 276.902ZM89.4689 276.592H12.878V275.592H89.4689H161.118V276.592H89.4689ZM12.9941 12.9991H161.006L154.486 203.15L157 95H17.3683L19.8079 211.703L12.9941 12.9991ZM21.6894 266.571L21.7006 266.897L20.7058 266.999L11.9992 13.1004L12.9939 12.9988V11.9991H161.006V12.9991L162.001 13.1007L153.295 266.999L152.3 266.898L152.311 266.571H152.3V266.646H89.1767H21.7006V266.571H21.6894ZM168.685 107.995H207.999V153.995H167V154.995H209V153.995H208.999V107H208.159V106.995H168.685V107.995ZM219 97V165V165.643V166H167V165H218V97H219ZM217.959 98.43H169.086V97.43H217.959V98.43ZM15.9995 95H17.3675L15.9995 95.0271V95Z" fill="white"/>
<path d="M2.99508 3H1.49508V4.5H2.99508V3ZM161.118 276.902L159.619 276.848L159.568 278.259L160.973 278.395L161.118 276.902ZM162.113 276.999L161.968 278.492L163.555 278.646L163.612 277.053L162.113 276.999ZM171.996 3.09658L173.495 3.15067L173.546 1.73992L172.141 1.60359L171.996 3.09658ZM171.001 2H172.501V0.5H171.001V2ZM2.99508 2V0.5H1.49508V2H2.99508ZM2.99532 3.00019L4.49435 2.9461L4.43688 1.35326L2.85045 1.5072L2.99532 3.00019ZM12.878 276.902L13.0229 278.395L14.4279 278.259L14.377 276.848L12.878 276.902ZM2 3.09677L1.85512 1.60379L0.450075 1.74013L0.500975 3.15086L2 3.09677ZM11.8827 276.999L10.3837 277.053L10.4411 278.646L12.0276 278.492L11.8827 276.999ZM12.878 276.592H11.378V278.092H12.878V276.592ZM12.878 275.592V274.092H11.378V275.592H12.878ZM161.118 275.592H162.618V274.092H161.118V275.592ZM161.118 276.592V278.092H162.618V276.592H161.118ZM12.9941 12.9991V11.4991H11.4417L11.4949 13.0506L12.9941 12.9991ZM154.486 203.15L152.986 203.115L155.985 203.202L154.486 203.15ZM157 95L158.5 95.0349L158.535 93.5H157V95ZM17.3683 95V93.5H15.8367L15.8687 95.0313L17.3683 95ZM19.8079 211.703L18.3088 211.755L21.3076 211.672L19.8079 211.703ZM21.6894 266.571V265.071H20.1371L20.1903 266.622L21.6894 266.571ZM21.7006 266.897L21.853 268.39L23.2478 268.247L23.1998 266.846L21.7006 266.897ZM20.7058 266.999L19.2067 267.05L19.2617 268.654L20.8582 268.491L20.7058 266.999ZM11.9992 13.1004L11.8469 11.6082L10.452 11.7506L10.5001 13.1518L11.9992 13.1004ZM12.9939 12.9988L13.1463 14.4911L14.4939 14.3535V12.9988H12.9939ZM12.9939 11.9991V10.4991H11.4939V11.9991H12.9939ZM161.006 11.9991H162.506V10.4991H161.006V11.9991ZM162.001 13.1007L163.5 13.1521L163.548 11.7509L162.153 11.6085L162.001 13.1007ZM153.295 266.999L153.143 268.492L154.739 268.655L154.794 267.051L153.295 266.999ZM152.3 266.898L150.801 266.846L150.753 268.248L152.148 268.39L152.3 266.898ZM152.311 266.571L153.811 266.622L153.864 265.071H152.311V266.571ZM152.3 266.571V265.071H150.8V266.571H152.3ZM152.3 266.646V268.146H153.8V266.646H152.3ZM21.7006 266.646H20.2006V268.146H21.7006V266.646ZM21.7006 266.571H23.2006V265.071H21.7006V266.571ZM207.999 107.995H209.499V106.495H207.999V107.995ZM168.685 107.995H167.185V109.495H168.685V107.995ZM207.999 153.995V155.495H209.499V153.995H207.999ZM167 153.995V152.495H165.5V153.995H167ZM167 154.995H165.5V156.495H167V154.995ZM209 154.995V156.495H210.5V154.995H209ZM209 153.995H210.5V152.495H209V153.995ZM208.999 153.995H207.499V155.495H208.999V153.995ZM208.999 107H210.499V105.5H208.999V107ZM208.159 107H206.659V108.5H208.159V107ZM208.159 106.995H209.659V105.495H208.159V106.995ZM168.685 106.995V105.495H167.185V106.995H168.685ZM219 97H220.5V95.5H219V97ZM219 166V167.5H220.5V166H219ZM167 166H165.5V167.5H167V166ZM167 165V163.5H165.5V165H167ZM218 165V166.5H219.5V165H218ZM218 97V95.5H216.5V97H218ZM169.086 98.43H167.586V99.93H169.086V98.43ZM217.959 98.43V99.93H219.459V98.43H217.959ZM169.086 97.43V95.93H167.586V97.43H169.086ZM217.959 97.43H219.459V95.93H217.959V97.43ZM17.3675 95L17.3972 96.4997L17.3675 93.5V95ZM15.9995 95V93.5H14.4995V95H15.9995ZM15.9995 95.0271H14.4995V96.5571L16.0292 96.5268L15.9995 95.0271ZM171.001 1.5H2.99508V4.5H171.001V1.5ZM162.617 276.956L172.5 3.05409L169.502 2.94591L159.619 276.848L162.617 276.956ZM162.258 275.506L161.262 275.409L160.973 278.395L161.968 278.492L162.258 275.506ZM170.497 3.04249L160.614 276.945L163.612 277.053L173.495 3.15067L170.497 3.04249ZM170.856 4.49299L171.851 4.58957L172.141 1.60359L171.146 1.50701L170.856 4.49299ZM169.501 2V3H172.501V2H169.501ZM2.99508 3.5H171.001V0.5H2.99508V3.5ZM4.49508 3V2H1.49508V3H4.49508ZM1.4963 3.05428L11.379 276.957L14.377 276.848L4.49435 2.9461L1.4963 3.05428ZM2.14488 4.58976L3.1402 4.49318L2.85045 1.5072L1.85512 1.60379L2.14488 4.58976ZM13.3817 276.945L3.49902 3.04269L0.500975 3.15086L10.3837 277.053L13.3817 276.945ZM12.7331 275.41L11.7378 275.506L12.0276 278.492L13.0229 278.395L12.7331 275.41ZM12.878 278.092H89.4689V275.092H12.878V278.092ZM11.378 275.592V276.592H14.378V275.592H11.378ZM89.4689 274.092H12.878V277.092H89.4689V274.092ZM161.118 274.092H89.4689V277.092H161.118V274.092ZM162.618 276.592V275.592H159.618V276.592H162.618ZM89.4689 278.092H161.118V275.092H89.4689V278.092ZM161.006 11.4991H12.9941V14.4991H161.006V11.4991ZM155.985 203.202L162.505 13.0505L159.507 12.9477L152.987 203.099L155.985 203.202ZM155.986 203.185L158.5 95.0349L155.5 94.9651L152.986 203.115L155.986 203.185ZM157 93.5H17.3683V96.5H157V93.5ZM15.8687 95.0313L18.3083 211.735L21.3076 211.672L18.868 94.9687L15.8687 95.0313ZM11.4949 13.0506L18.3088 211.755L21.3071 211.652L14.4932 12.9477L11.4949 13.0506ZM20.1903 266.622L20.2015 266.949L23.1998 266.846L23.1886 266.519L20.1903 266.622ZM21.5483 265.405L20.5535 265.507L20.8582 268.491L21.853 268.39L21.5483 265.405ZM22.2049 266.948L13.4983 13.049L10.5001 13.1518L19.2067 267.05L22.2049 266.948ZM12.1516 14.5927L13.1463 14.4911L12.8416 11.5066L11.8469 11.6082L12.1516 14.5927ZM14.4939 12.9988V11.9991H11.4939V12.9988H14.4939ZM12.9939 13.4991H161.006V10.4991H12.9939V13.4991ZM159.506 11.9991V12.9991H162.506V11.9991H159.506ZM160.854 14.4914L161.848 14.593L162.153 11.6085L161.158 11.5069L160.854 14.4914ZM160.502 13.0493L151.796 266.948L154.794 267.051L163.5 13.1521L160.502 13.0493ZM153.447 265.507L152.453 265.406L152.148 268.39L153.143 268.492L153.447 265.507ZM153.799 266.949L153.811 266.622L150.812 266.519L150.801 266.846L153.799 266.949ZM152.3 268.071H152.311V265.071H152.3V268.071ZM153.8 266.646V266.571H150.8V266.646H153.8ZM89.1767 268.146H152.3V265.146H89.1767V268.146ZM21.7006 268.146H89.1767V265.146H21.7006V268.146ZM20.2006 266.571V266.646H23.2006V266.571H20.2006ZM21.6894 268.071H21.7006V265.071H21.6894V268.071ZM207.999 106.495H168.685V109.495H207.999V106.495ZM209.499 153.995V107.995H206.499V153.995H209.499ZM167 155.495H207.999V152.495H167V155.495ZM168.5 154.995V153.995H165.5V154.995H168.5ZM209 153.495H167V156.495H209V153.495ZM207.5 153.995V154.995H210.5V153.995H207.5ZM208.999 155.495H209V152.495H208.999V155.495ZM207.499 107V153.995H210.499V107H207.499ZM208.159 108.5H208.999V105.5H208.159V108.5ZM206.659 106.995V107H209.659V106.995H206.659ZM168.685 108.495H208.159V105.495H168.685V108.495ZM170.185 107.995V106.995H167.185V107.995H170.185ZM220.5 165V97H217.5V165H220.5ZM220.5 165.643V165H217.5V165.643H220.5ZM220.5 166V165.643H217.5V166H220.5ZM167 167.5H219V164.5H167V167.5ZM165.5 165V166H168.5V165H165.5ZM218 163.5H167V166.5H218V163.5ZM216.5 97V165H219.5V97H216.5ZM219 95.5H218V98.5H219V95.5ZM169.086 99.93H217.959V96.93H169.086V99.93ZM167.586 97.43V98.43H170.586V97.43H167.586ZM217.959 95.93H169.086V98.93H217.959V95.93ZM219.459 98.43V97.43H216.459V98.43H219.459ZM17.3675 93.5H15.9995V96.5H17.3675V93.5ZM16.0292 96.5268L17.3972 96.4997L17.3378 93.5003L15.9698 93.5274L16.0292 96.5268ZM14.4995 95V95.0271H17.4995V95H14.4995Z" fill="white"/>
</svg>
