<svg width="250" height="279" viewBox="0 0 250 279" fill="none" xmlns="http://www.w3.org/2000/svg">
<path fill-rule="evenodd" clip-rule="evenodd" d="M31.9951 3H200.001L190.118 276.902L191.113 276.999L200.996 3.09658L200.001 3V2H31.9951V3ZM40.4924 238.5L39.3739 207.5H47.6655L48.7285 238.5H40.4924ZM39.4936 238.5L38.3751 207.5H3V206.5H38.339L33.9191 84H2V83H33.883L31 3.09677L31.9953 3.00019L34.8818 83H43.3962L40.9992 13.1004L41.9939 12.9988V11.9991H190.006V12.9991H41.9941L44.3945 83H99.6133L102 80.6133L104.887 83.5L102 86.3867L99.6133 84H44.4288L46.7949 153H48.8958V156H46.8978L48.6295 206.5H52.4691L76.6259 194.012L52 185.272L62.0344 157L90.3065 167.034L80.2721 195.307L76.663 194.026L83.1116 206.5H100.613L103 204.113L105.887 207L103 209.887L100.613 207.5H83.6286L90.4262 220.65L71.9011 230.226L100.044 234.363L99.4359 238.5H100.613L103 236.113L105.887 239L103 241.887L100.613 239.5H99.2889L95.681 264.044L66 259.681L68.9665 239.5H49.7611L50.7006 266.897L49.7058 266.999L48.7628 239.5H40.5285L41.878 276.902L40.8827 276.999L39.5297 239.5H3V238.5H39.4936ZM69.1135 238.5L70.2005 231.105L63.7764 234.426L50 207.776L50.5346 207.5H48.6638L49.7268 238.5H69.1135ZM190.006 12.9991L191.001 13.1007L182.295 266.999L181.3 266.898L190.006 12.9991ZM43.4305 84H34.9179L39.3378 206.5H47.6312L43.4305 84ZM118.469 276.592H41.878V275.592H118.469H190.118V276.592H118.469ZM118.177 266.646H50.7006V265.646H118.177H181.3V266.646H118.177ZM236.999 107.995H197.685V106.995H237.159V107H237.999V153.995H238V154.995H196V153.995H236.999V107.995ZM248 165V97H247V165H196V166H248V165.643V165ZM198.086 98.43H246.959V97.43H198.086V98.43ZM60.4792 156H54.6875V153H60.4792V156ZM72.0625 156H66.2708V153H72.0625V156ZM83.6458 156H77.8542V153H83.6458V156ZM95.2292 156H89.4375V153H95.2292V156ZM106.812 156H101.021V153H106.812V156ZM118.396 156H112.604V153H118.396V156ZM129.979 156H124.188V153H129.979V156ZM141.562 156H135.771V153H141.562V156ZM153.146 156H147.354V153H153.146V156ZM164.729 156H158.937V153H164.729V156ZM176.312 156H170.521V153H176.312V156ZM185 156H182.104V153H185V156ZM142.331 206.169L141 204.465L164.644 186L183.109 209.644L159.465 228.109L143.625 207.826L131.256 233.588L140.688 233.69L140.496 251.488L151.583 225L179.257 236.583L167.674 264.257L140.481 252.875L140.365 263.688L110.366 263.365L110.69 233.366L130.101 233.576L104 221.044L116.885 194.208L99.6736 200.071L90 171.674L118.398 162L128.071 190.398L117.197 194.102L142.331 206.169ZM148.353 157.089L168.765 179.074L146.779 199.486L126.367 177.5L148.353 157.089Z" fill="white"/>
<path d="M31.9951 3H30.4951V4.5H31.9951V3ZM190.118 276.902L188.619 276.848L188.568 278.259L189.973 278.395L190.118 276.902ZM191.113 276.999L190.968 278.492L192.555 278.646L192.612 277.053L191.113 276.999ZM200.996 3.09658L202.495 3.15067L202.546 1.73992L201.141 1.60359L200.996 3.09658ZM200.001 2H201.501V0.5H200.001V2ZM31.9951 2V0.5H30.4951V2H31.9951ZM39.3739 207.5V206H37.8188L37.8749 207.554L39.3739 207.5ZM40.4924 238.5L38.9934 238.554L39.0456 240H40.4924V238.5ZM47.6655 207.5L49.1646 207.449L49.1149 206H47.6655V207.5ZM48.7285 238.5V240H50.2809L50.2276 238.449L48.7285 238.5ZM38.3751 207.5L39.8741 207.446L39.8219 206H38.3751V207.5ZM39.4936 238.5V240H41.0487L40.9926 238.446L39.4936 238.5ZM3 207.5H1.5V209H3V207.5ZM3 206.5V205H1.5V206.5H3ZM38.339 206.5V208H39.8941L39.838 206.446L38.339 206.5ZM33.9191 84L35.4181 83.9459L35.3659 82.5H33.9191V84ZM2 84H0.5V85.5H2V84ZM2 83V81.5H0.5V83H2ZM33.883 83V84.5H35.4381L35.382 82.9459L33.883 83ZM31 3.09677L30.8551 1.60379L29.4501 1.74013L29.501 3.15086L31 3.09677ZM31.9953 3.00019L33.4943 2.9461L33.4369 1.35326L31.8504 1.5072L31.9953 3.00019ZM34.8818 83L33.3828 83.0541L33.4349 84.5H34.8818V83ZM43.3962 83V84.5H44.9485L44.8953 82.9486L43.3962 83ZM40.9992 13.1004L40.8469 11.6082L39.452 11.7506L39.5001 13.1518L40.9992 13.1004ZM41.9939 12.9988L42.1463 14.4911L43.4939 14.3535V12.9988H41.9939ZM41.9939 11.9991V10.4991H40.4939V11.9991H41.9939ZM190.006 11.9991H191.506V10.4991H190.006V11.9991ZM41.9941 12.9991V11.4991H40.4417L40.4949 13.0506L41.9941 12.9991ZM44.3945 83L42.8954 83.0514L42.945 84.5H44.3945V83ZM99.6133 83V84.5H100.235L100.674 84.0607L99.6133 83ZM102 80.6133L103.061 79.5526L102 78.4919L100.939 79.5526L102 80.6133ZM104.887 83.5L105.947 84.5607L107.008 83.5L105.947 82.4393L104.887 83.5ZM102 86.3867L100.939 87.4474L102 88.5081L103.061 87.4474L102 86.3867ZM99.6133 84L100.674 82.9393L100.235 82.5H99.6133V84ZM44.4288 84V82.5H42.8765L42.9297 84.0514L44.4288 84ZM46.7949 153L45.2958 153.051L45.3455 154.5H46.7949V153ZM48.8958 153H50.3958V151.5H48.8958V153ZM48.8958 156V157.5H50.3958V156H48.8958ZM46.8978 156V154.5H45.3455L45.3987 156.051L46.8978 156ZM48.6295 206.5L47.1304 206.551L47.1801 208H48.6295V206.5ZM52.4691 206.5V208H52.8338L53.1579 207.832L52.4691 206.5ZM76.6259 194.012L77.3147 195.345L80.3882 193.756L77.1276 192.599L76.6259 194.012ZM52 185.272L50.5864 184.77L50.0847 186.184L51.4983 186.686L52 185.272ZM62.0344 157L62.5361 155.586L61.1225 155.085L60.6208 156.498L62.0344 157ZM90.3065 167.034L91.7201 167.536L92.2218 166.123L90.8082 165.621L90.3065 167.034ZM80.2721 195.307L79.7704 196.72L81.184 197.222L81.6857 195.808L80.2721 195.307ZM76.663 194.026L77.1648 192.612L73.5873 191.342L75.3305 194.714L76.663 194.026ZM83.1116 206.5L81.7791 207.189L82.1985 208H83.1116V206.5ZM100.613 206.5V208H101.235L101.674 207.561L100.613 206.5ZM103 204.113L104.061 203.053L103 201.992L101.939 203.053L103 204.113ZM105.887 207L106.947 208.061L108.008 207L106.947 205.939L105.887 207ZM103 209.887L101.939 210.947L103 212.008L104.061 210.947L103 209.887ZM100.613 207.5L101.674 206.439L101.235 206H100.613V207.5ZM83.6286 207.5V206H81.1646L82.2961 208.189L83.6286 207.5ZM90.4262 220.65L91.115 221.982L92.4475 221.293L91.7587 219.961L90.4262 220.65ZM71.9011 230.226L71.2123 228.894L67.0744 231.033L71.683 231.71L71.9011 230.226ZM100.044 234.363L101.528 234.581L101.746 233.097L100.262 232.879L100.044 234.363ZM99.4359 238.5L97.9518 238.282L97.6993 240H99.4359V238.5ZM100.613 238.5V240H101.235L101.674 239.561L100.613 238.5ZM103 236.113L104.061 235.053L103 233.992L101.939 235.053L103 236.113ZM105.887 239L106.947 240.061L108.008 239L106.947 237.939L105.887 239ZM103 241.887L101.939 242.947L103 244.008L104.061 242.947L103 241.887ZM100.613 239.5L101.674 238.439L101.235 238H100.613V239.5ZM99.2889 239.5V238H97.9933L97.8048 239.282L99.2889 239.5ZM95.681 264.044L95.4629 265.528L96.9469 265.746L97.1651 264.262L95.681 264.044ZM66 259.681L64.5159 259.463L64.2978 260.947L65.7818 261.165L66 259.681ZM68.9665 239.5L70.4506 239.718L70.7031 238H68.9665V239.5ZM49.7611 239.5V238H48.2088L48.262 239.551L49.7611 239.5ZM50.7006 266.897L50.853 268.39L52.2478 268.247L52.1998 266.846L50.7006 266.897ZM49.7058 266.999L48.2067 267.05L48.2617 268.654L49.8582 268.491L49.7058 266.999ZM48.7628 239.5L50.2619 239.449L50.2123 238H48.7628V239.5ZM40.5285 239.5V238H38.9734L39.0295 239.554L40.5285 239.5ZM41.878 276.902L42.0229 278.395L43.4279 278.259L43.377 276.848L41.878 276.902ZM40.8827 276.999L39.3837 277.053L39.4411 278.646L41.0276 278.492L40.8827 276.999ZM39.5297 239.5L41.0287 239.446L40.9765 238H39.5297V239.5ZM3 239.5H1.5V241H3V239.5ZM3 238.5V237H1.5V238.5H3ZM70.2005 231.105L71.6846 231.323L72.1099 228.43L69.5117 229.773L70.2005 231.105ZM69.1135 238.5V240H70.4091L70.5976 238.718L69.1135 238.5ZM63.7764 234.426L62.4439 235.115L63.1328 236.447L64.4653 235.759L63.7764 234.426ZM50 207.776L49.3112 206.444L47.9787 207.133L48.6675 208.465L50 207.776ZM50.5346 207.5L51.2234 208.832L50.5346 206V207.5ZM48.6638 207.5V206H47.1115L47.1647 207.551L48.6638 207.5ZM49.7268 238.5L48.2277 238.551L48.2774 240H49.7268V238.5ZM191.001 13.1007L192.5 13.1521L192.548 11.7509L191.153 11.6085L191.001 13.1007ZM182.295 266.999L182.143 268.492L183.739 268.655L183.794 267.051L182.295 266.999ZM181.3 266.898L179.801 266.846L179.753 268.248L181.148 268.39L181.3 266.898ZM34.9179 84V82.5H33.3628L33.4189 84.0541L34.9179 84ZM43.4305 84L44.9296 83.9486L44.8799 82.5H43.4305V84ZM39.3378 206.5L37.8388 206.554L37.891 208H39.3378V206.5ZM47.6312 206.5V208H49.1835L49.1303 206.449L47.6312 206.5ZM41.878 276.592H40.378V278.092H41.878V276.592ZM41.878 275.592V274.092H40.378V275.592H41.878ZM190.118 275.592H191.618V274.092H190.118V275.592ZM190.118 276.592V278.092H191.618V276.592H190.118ZM50.7006 266.646H49.2006V268.146H50.7006V266.646ZM50.7006 265.646V264.146H49.2006V265.646H50.7006ZM181.3 265.646H182.8V264.146H181.3V265.646ZM181.3 266.646V268.146H182.8V266.646H181.3ZM197.685 107.995H196.185V109.495H197.685V107.995ZM236.999 107.995H238.499V106.495H236.999V107.995ZM197.685 106.995V105.495H196.185V106.995H197.685ZM237.159 106.995H238.659V105.495H237.159V106.995ZM237.159 107H235.659V108.5H237.159V107ZM237.999 107H239.499V105.5H237.999V107ZM237.999 153.995H236.499V155.495H237.999V153.995ZM238 153.995H239.5V152.495H238V153.995ZM238 154.995V156.495H239.5V154.995H238ZM196 154.995H194.5V156.495H196V154.995ZM196 153.995V152.495H194.5V153.995H196ZM236.999 153.995V155.495H238.499V153.995H236.999ZM248 97H249.5V95.5H248V97ZM247 97V95.5H245.5V97H247ZM247 165V166.5H248.5V165H247ZM196 165V163.5H194.5V165H196ZM196 166H194.5V167.5H196V166ZM248 166V167.5H249.5V166H248ZM246.959 98.43V99.93H248.459V98.43H246.959ZM198.086 98.43H196.586V99.93H198.086V98.43ZM246.959 97.43H248.459V95.93H246.959V97.43ZM198.086 97.43V95.93H196.586V97.43H198.086ZM54.6875 156H53.1875V157.5H54.6875V156ZM60.4792 156V157.5H61.9792V156H60.4792ZM54.6875 153V151.5H53.1875V153H54.6875ZM60.4792 153H61.9792V151.5H60.4792V153ZM66.2708 156H64.7708V157.5H66.2708V156ZM72.0625 156V157.5H73.5625V156H72.0625ZM66.2708 153V151.5H64.7708V153H66.2708ZM72.0625 153H73.5625V151.5H72.0625V153ZM77.8542 156H76.3542V157.5H77.8542V156ZM83.6458 156V157.5H85.1458V156H83.6458ZM77.8542 153V151.5H76.3542V153H77.8542ZM83.6458 153H85.1458V151.5H83.6458V153ZM89.4375 156H87.9375V157.5H89.4375V156ZM95.2292 156V157.5H96.7292V156H95.2292ZM89.4375 153V151.5H87.9375V153H89.4375ZM95.2292 153H96.7292V151.5H95.2292V153ZM101.021 156H99.5208V157.5H101.021V156ZM106.812 156V157.5H108.312V156H106.812ZM101.021 153V151.5H99.5208V153H101.021ZM106.812 153H108.312V151.5H106.812V153ZM112.604 156H111.104V157.5H112.604V156ZM118.396 156V157.5H119.896V156H118.396ZM112.604 153V151.5H111.104V153H112.604ZM118.396 153H119.896V151.5H118.396V153ZM124.188 156H122.688V157.5H124.188V156ZM129.979 156V157.5H131.479V156H129.979ZM124.188 153V151.5H122.688V153H124.188ZM129.979 153H131.479V151.5H129.979V153ZM135.771 156H134.271V157.5H135.771V156ZM141.562 156V157.5H143.062V156H141.562ZM135.771 153V151.5H134.271V153H135.771ZM141.562 153H143.062V151.5H141.562V153ZM147.354 156H145.854V157.5H147.354V156ZM153.146 156V157.5H154.646V156H153.146ZM147.354 153V151.5H145.854V153H147.354ZM153.146 153H154.646V151.5H153.146V153ZM158.937 156H157.437V157.5H158.937V156ZM164.729 156V157.5H166.229V156H164.729ZM158.937 153V151.5H157.437V153H158.937ZM164.729 153H166.229V151.5H164.729V153ZM170.521 156H169.021V157.5H170.521V156ZM176.312 156V157.5H177.812V156H176.312ZM170.521 153V151.5H169.021V153H170.521ZM176.312 153H177.812V151.5H176.312V153ZM182.104 156H180.604V157.5H182.104V156ZM185 156V157.5H186.5V156H185ZM182.104 153V151.5H180.604V153H182.104ZM185 153H186.5V151.5H185V153ZM141 204.465L140.077 203.283L138.895 204.206L139.818 205.388L141 204.465ZM142.331 206.169L141.682 207.522L143.513 205.246L142.331 206.169ZM164.644 186L165.826 185.077L164.903 183.895L163.721 184.818L164.644 186ZM183.109 209.644L184.032 210.826L185.215 209.903L184.291 208.721L183.109 209.644ZM159.465 228.109L158.283 229.032L159.206 230.215L160.388 229.291L159.465 228.109ZM143.625 207.826L144.807 206.903L143.319 204.998L142.273 207.177L143.625 207.826ZM131.256 233.588L129.904 232.939L128.884 235.063L131.24 235.088L131.256 233.588ZM140.688 233.69L142.188 233.706L142.204 232.206L140.705 232.19L140.688 233.69ZM140.496 251.488L138.996 251.472L141.88 252.067L140.496 251.488ZM151.583 225L152.163 223.616L150.779 223.037L150.2 224.421L151.583 225ZM179.257 236.583L180.641 237.163L181.22 235.779L179.836 235.2L179.257 236.583ZM167.674 264.257L167.094 265.641L168.478 266.22L169.057 264.836L167.674 264.257ZM140.481 252.875L141.06 251.491L139.005 250.631L138.981 252.859L140.481 252.875ZM140.365 263.688L140.348 265.188L141.848 265.205L141.864 263.705L140.365 263.688ZM110.366 263.365L108.866 263.348L108.85 264.848L110.35 264.865L110.366 263.365ZM110.69 233.366L110.706 231.866L109.206 231.85L109.19 233.35L110.69 233.366ZM130.101 233.576L130.084 235.076L130.75 232.224L130.101 233.576ZM104 221.044L102.648 220.395L101.999 221.747L103.351 222.397L104 221.044ZM116.885 194.208L118.237 194.858L119.783 191.636L116.401 192.788L116.885 194.208ZM99.6736 200.071L98.2538 200.555L98.7374 201.975L100.157 201.491L99.6736 200.071ZM90 171.674L89.5163 170.254L88.0964 170.738L88.5801 172.157L90 171.674ZM118.398 162L119.817 161.516L119.334 160.096L117.914 160.58L118.398 162ZM128.071 190.398L128.555 191.817L129.975 191.334L129.491 189.914L128.071 190.398ZM117.197 194.102L116.713 192.682L113.239 193.866L116.548 195.454L117.197 194.102ZM168.765 179.074L169.785 180.174L170.885 179.153L169.864 178.054L168.765 179.074ZM148.353 157.089L149.452 156.068L148.432 154.969L147.333 155.989L148.353 157.089ZM146.779 199.486L145.68 200.506L146.7 201.606L147.8 200.585L146.779 199.486ZM126.367 177.5L125.347 176.401L124.248 177.421L125.268 178.521L126.367 177.5ZM200.001 1.5H31.9951V4.5H200.001V1.5ZM191.617 276.956L201.5 3.05409L198.502 2.94591L188.619 276.848L191.617 276.956ZM191.258 275.506L190.262 275.409L189.973 278.395L190.968 278.492L191.258 275.506ZM199.497 3.04249L189.614 276.945L192.612 277.053L202.495 3.15067L199.497 3.04249ZM199.856 4.49299L200.851 4.58957L201.141 1.60359L200.146 1.50701L199.856 4.49299ZM198.501 2V3H201.501V2H198.501ZM31.9951 3.5H200.001V0.5H31.9951V3.5ZM33.4951 3V2H30.4951V3H33.4951ZM37.8749 207.554L38.9934 238.554L41.9914 238.446L40.8729 207.446L37.8749 207.554ZM47.6655 206H39.3739V209H47.6655V206ZM50.2276 238.449L49.1646 207.449L46.1664 207.551L47.2294 238.551L50.2276 238.449ZM40.4924 240H48.7285V237H40.4924V240ZM36.8761 207.554L37.9946 238.554L40.9926 238.446L39.8741 207.446L36.8761 207.554ZM3 209H38.3751V206H3V209ZM1.5 206.5V207.5H4.5V206.5H1.5ZM38.339 205H3V208H38.339V205ZM32.4201 84.0541L36.84 206.554L39.838 206.446L35.4181 83.9459L32.4201 84.0541ZM2 85.5H33.9191V82.5H2V85.5ZM0.5 83V84H3.5V83H0.5ZM33.883 81.5H2V84.5H33.883V81.5ZM29.501 3.15086L32.384 83.0541L35.382 82.9459L32.499 3.04269L29.501 3.15086ZM31.8504 1.5072L30.8551 1.60379L31.1449 4.58976L32.1402 4.49318L31.8504 1.5072ZM36.3808 82.9459L33.4943 2.9461L30.4963 3.05428L33.3828 83.0541L36.3808 82.9459ZM43.3962 81.5H34.8818V84.5H43.3962V81.5ZM39.5001 13.1518L41.8971 83.0514L44.8953 82.9486L42.4983 13.049L39.5001 13.1518ZM41.8416 11.5066L40.8469 11.6082L41.1516 14.5927L42.1463 14.4911L41.8416 11.5066ZM40.4939 11.9991V12.9988H43.4939V11.9991H40.4939ZM190.006 10.4991H41.9939V13.4991H190.006V10.4991ZM191.506 12.9991V11.9991H188.506V12.9991H191.506ZM41.9941 14.4991H190.006V11.4991H41.9941V14.4991ZM45.8936 82.9486L43.4932 12.9477L40.4949 13.0506L42.8954 83.0514L45.8936 82.9486ZM99.6133 81.5H44.3945V84.5H99.6133V81.5ZM100.939 79.5526L98.5526 81.9393L100.674 84.0607L103.061 81.6739L100.939 79.5526ZM105.947 82.4393L103.061 79.5526L100.939 81.6739L103.826 84.5607L105.947 82.4393ZM103.061 87.4474L105.947 84.5607L103.826 82.4393L100.939 85.3261L103.061 87.4474ZM98.5526 85.0607L100.939 87.4474L103.061 85.3261L100.674 82.9393L98.5526 85.0607ZM44.4288 85.5H99.6133V82.5H44.4288V85.5ZM48.294 152.949L45.9279 83.9486L42.9297 84.0514L45.2958 153.051L48.294 152.949ZM48.8958 151.5H46.7949V154.5H48.8958V151.5ZM50.3958 156V153H47.3958V156H50.3958ZM46.8978 157.5H48.8958V154.5H46.8978V157.5ZM50.1286 206.449L48.3969 155.949L45.3987 156.051L47.1304 206.551L50.1286 206.449ZM52.4691 205H48.6295V208H52.4691V205ZM75.937 192.68L51.7803 205.168L53.1579 207.832L77.3147 195.345L75.937 192.68ZM51.4983 186.686L76.1241 195.426L77.1276 192.599L52.5017 183.858L51.4983 186.686ZM60.6208 156.498L50.5864 184.77L53.4136 185.774L63.448 157.502L60.6208 156.498ZM90.8082 165.621L62.5361 155.586L61.5327 158.414L89.8048 168.448L90.8082 165.621ZM81.6857 195.808L91.7201 167.536L88.8929 166.533L78.8585 194.805L81.6857 195.808ZM76.1613 195.439L79.7704 196.72L80.7738 193.893L77.1648 192.612L76.1613 195.439ZM84.4441 205.811L77.9955 193.337L75.3305 194.714L81.7791 207.189L84.4441 205.811ZM100.613 205H83.1116V208H100.613V205ZM101.939 203.053L99.5526 205.439L101.674 207.561L104.061 205.174L101.939 203.053ZM106.947 205.939L104.061 203.053L101.939 205.174L104.826 208.061L106.947 205.939ZM104.061 210.947L106.947 208.061L104.826 205.939L101.939 208.826L104.061 210.947ZM99.5526 208.561L101.939 210.947L104.061 208.826L101.674 206.439L99.5526 208.561ZM83.6286 209H100.613V206H83.6286V209ZM91.7587 219.961L84.9611 206.811L82.2961 208.189L89.0937 221.338L91.7587 219.961ZM72.5899 231.559L91.115 221.982L89.7374 219.317L71.2123 228.894L72.5899 231.559ZM100.262 232.879L72.1193 228.742L71.683 231.71L99.8259 235.847L100.262 232.879ZM100.92 238.718L101.528 234.581L98.56 234.145L97.9518 238.282L100.92 238.718ZM100.613 237H99.4359V240H100.613V237ZM101.939 235.053L99.5526 237.439L101.674 239.561L104.061 237.174L101.939 235.053ZM106.947 237.939L104.061 235.053L101.939 237.174L104.826 240.061L106.947 237.939ZM104.061 242.947L106.947 240.061L104.826 237.939L101.939 240.826L104.061 242.947ZM99.5526 240.561L101.939 242.947L104.061 240.826L101.674 238.439L99.5526 240.561ZM99.2889 241H100.613V238H99.2889V241ZM97.1651 264.262L100.773 239.718L97.8048 239.282L94.197 263.826L97.1651 264.262ZM65.7818 261.165L95.4629 265.528L95.8992 262.56L66.2182 258.197L65.7818 261.165ZM67.4825 239.282L64.5159 259.463L67.4841 259.899L70.4506 239.718L67.4825 239.282ZM49.7611 241H68.9665V238H49.7611V241ZM52.1998 266.846L51.2603 239.449L48.262 239.551L49.2015 266.949L52.1998 266.846ZM49.8582 268.491L50.853 268.39L50.5483 265.405L49.5535 265.507L49.8582 268.491ZM47.2637 239.551L48.2067 267.05L51.2049 266.948L50.2619 239.449L47.2637 239.551ZM40.5285 241H48.7628V238H40.5285V241ZM43.377 276.848L42.0275 239.446L39.0295 239.554L40.379 276.957L43.377 276.848ZM41.0276 278.492L42.0229 278.395L41.7331 275.41L40.7378 275.506L41.0276 278.492ZM38.0307 239.554L39.3837 277.053L42.3817 276.945L41.0287 239.446L38.0307 239.554ZM3 241H39.5297V238H3V241ZM1.5 238.5V239.5H4.5V238.5H1.5ZM39.4936 237H3V240H39.4936V237ZM68.7164 230.887L67.6295 238.282L70.5976 238.718L71.6846 231.323L68.7164 230.887ZM64.4653 235.759L70.8893 232.438L69.5117 229.773L63.0876 233.094L64.4653 235.759ZM48.6675 208.465L62.4439 235.115L65.1089 233.737L51.3325 207.088L48.6675 208.465ZM49.8458 206.168L49.3112 206.444L50.6888 209.109L51.2234 208.832L49.8458 206.168ZM48.6638 209H50.5346V206H48.6638V209ZM51.226 238.449L50.1629 207.449L47.1647 207.551L48.2277 238.551L51.226 238.449ZM69.1135 237H49.7268V240H69.1135V237ZM191.153 11.6085L190.158 11.5069L189.854 14.4914L190.848 14.593L191.153 11.6085ZM183.794 267.051L192.5 13.1521L189.502 13.0493L180.796 266.948L183.794 267.051ZM181.148 268.39L182.143 268.492L182.447 265.507L181.453 265.406L181.148 268.39ZM188.507 12.9477L179.801 266.846L182.799 266.949L191.505 13.0505L188.507 12.9477ZM34.9179 85.5H43.4305V82.5H34.9179V85.5ZM40.8368 206.446L36.4169 83.9459L33.4189 84.0541L37.8388 206.554L40.8368 206.446ZM47.6312 205H39.3378V208H47.6312V205ZM41.9314 84.0514L46.1321 206.551L49.1303 206.449L44.9296 83.9486L41.9314 84.0514ZM41.878 278.092H118.469V275.092H41.878V278.092ZM40.378 275.592V276.592H43.378V275.592H40.378ZM118.469 274.092H41.878V277.092H118.469V274.092ZM190.118 274.092H118.469V277.092H190.118V274.092ZM191.618 276.592V275.592H188.618V276.592H191.618ZM118.469 278.092H190.118V275.092H118.469V278.092ZM50.7006 268.146H118.177V265.146H50.7006V268.146ZM49.2006 265.646V266.646H52.2006V265.646H49.2006ZM118.177 264.146H50.7006V267.146H118.177V264.146ZM181.3 264.146H118.177V267.146H181.3V264.146ZM182.8 266.646V265.646H179.8V266.646H182.8ZM118.177 268.146H181.3V265.146H118.177V268.146ZM197.685 109.495H236.999V106.495H197.685V109.495ZM196.185 106.995V107.995H199.185V106.995H196.185ZM237.159 105.495H197.685V108.495H237.159V105.495ZM238.659 107V106.995H235.659V107H238.659ZM237.999 105.5H237.159V108.5H237.999V105.5ZM239.499 153.995V107H236.499V153.995H239.499ZM238 152.495H237.999V155.495H238V152.495ZM239.5 154.995V153.995H236.5V154.995H239.5ZM196 156.495H238V153.495H196V156.495ZM194.5 153.995V154.995H197.5V153.995H194.5ZM236.999 152.495H196V155.495H236.999V152.495ZM235.499 107.995V153.995H238.499V107.995H235.499ZM246.5 97V165H249.5V97H246.5ZM247 98.5H248V95.5H247V98.5ZM248.5 165V97H245.5V165H248.5ZM196 166.5H247V163.5H196V166.5ZM197.5 166V165H194.5V166H197.5ZM248 164.5H196V167.5H248V164.5ZM246.5 165.643V166H249.5V165.643H246.5ZM246.5 165V165.643H249.5V165H246.5ZM246.959 96.93H198.086V99.93H246.959V96.93ZM245.459 97.43V98.43H248.459V97.43H245.459ZM198.086 98.93H246.959V95.93H198.086V98.93ZM199.586 98.43V97.43H196.586V98.43H199.586ZM54.6875 157.5H60.4792V154.5H54.6875V157.5ZM53.1875 153V156H56.1875V153H53.1875ZM60.4792 151.5H54.6875V154.5H60.4792V151.5ZM61.9792 156V153H58.9792V156H61.9792ZM66.2708 157.5H72.0625V154.5H66.2708V157.5ZM64.7708 153V156H67.7708V153H64.7708ZM72.0625 151.5H66.2708V154.5H72.0625V151.5ZM73.5625 156V153H70.5625V156H73.5625ZM77.8542 157.5H83.6458V154.5H77.8542V157.5ZM76.3542 153V156H79.3542V153H76.3542ZM83.6458 151.5H77.8542V154.5H83.6458V151.5ZM85.1458 156V153H82.1458V156H85.1458ZM89.4375 157.5H95.2292V154.5H89.4375V157.5ZM87.9375 153V156H90.9375V153H87.9375ZM95.2292 151.5H89.4375V154.5H95.2292V151.5ZM96.7292 156V153H93.7292V156H96.7292ZM101.021 157.5H106.812V154.5H101.021V157.5ZM99.5208 153V156H102.521V153H99.5208ZM106.812 151.5H101.021V154.5H106.812V151.5ZM108.312 156V153H105.312V156H108.312ZM112.604 157.5H118.396V154.5H112.604V157.5ZM111.104 153V156H114.104V153H111.104ZM118.396 151.5H112.604V154.5H118.396V151.5ZM119.896 156V153H116.896V156H119.896ZM124.188 157.5H129.979V154.5H124.188V157.5ZM122.688 153V156H125.688V153H122.688ZM129.979 151.5H124.188V154.5H129.979V151.5ZM131.479 156V153H128.479V156H131.479ZM135.771 157.5H141.562V154.5H135.771V157.5ZM134.271 153V156H137.271V153H134.271ZM141.562 151.5H135.771V154.5H141.562V151.5ZM143.062 156V153H140.062V156H143.062ZM147.354 157.5H153.146V154.5H147.354V157.5ZM145.854 153V156H148.854V153H145.854ZM153.146 151.5H147.354V154.5H153.146V151.5ZM154.646 156V153H151.646V156H154.646ZM158.937 157.5H164.729V154.5H158.937V157.5ZM157.437 153V156H160.437V153H157.437ZM164.729 151.5H158.937V154.5H164.729V151.5ZM166.229 156V153H163.229V156H166.229ZM170.521 157.5H176.312V154.5H170.521V157.5ZM169.021 153V156H172.021V153H169.021ZM176.312 151.5H170.521V154.5H176.312V151.5ZM177.812 156V153H174.812V156H177.812ZM182.104 157.5H185V154.5H182.104V157.5ZM180.604 153V156H183.604V153H180.604ZM185 151.5H182.104V154.5H185V151.5ZM186.5 156V153H183.5V156H186.5ZM139.818 205.388L141.149 207.093L143.513 205.246L142.182 203.542L139.818 205.388ZM163.721 184.818L140.077 203.283L141.923 205.647L165.567 187.182L163.721 184.818ZM184.291 208.721L165.826 185.077L163.462 186.923L181.927 210.567L184.291 208.721ZM160.388 229.291L184.032 210.826L182.186 208.462L158.542 226.927L160.388 229.291ZM142.443 208.749L158.283 229.032L160.647 227.186L144.807 206.903L142.443 208.749ZM132.608 234.238L144.977 208.475L142.273 207.177L129.904 232.939L132.608 234.238ZM140.705 232.19L131.272 232.088L131.24 235.088L140.672 235.19L140.705 232.19ZM141.996 251.504L142.188 233.706L139.188 233.674L138.996 251.472L141.996 251.504ZM150.2 224.421L139.113 250.909L141.88 252.067L152.967 225.579L150.2 224.421ZM179.836 235.2L152.163 223.616L151.004 226.384L178.678 237.967L179.836 235.2ZM169.057 264.836L180.641 237.163L177.873 236.004L166.29 263.678L169.057 264.836ZM139.902 254.259L167.094 265.641L168.253 262.873L141.06 251.491L139.902 254.259ZM141.864 263.705L141.981 252.891L138.981 252.859L138.865 263.672L141.864 263.705ZM110.35 264.865L140.348 265.188L140.381 262.189L110.382 261.865L110.35 264.865ZM109.19 233.35L108.866 263.348L111.866 263.381L112.19 233.383L109.19 233.35ZM130.117 232.076L110.706 231.866L110.674 234.866L130.084 235.076L130.117 232.076ZM103.351 222.397L129.451 234.928L130.75 232.224L104.649 219.692L103.351 222.397ZM115.532 193.559L102.648 220.395L105.352 221.694L118.237 194.858L115.532 193.559ZM100.157 201.491L117.368 195.628L116.401 192.788L99.19 198.651L100.157 201.491ZM88.5801 172.157L98.2538 200.555L101.094 199.588L91.4199 171.19L88.5801 172.157ZM117.914 160.58L89.5163 170.254L90.4837 173.094L118.881 163.42L117.914 160.58ZM129.491 189.914L119.817 161.516L116.978 162.484L126.651 190.881L129.491 189.914ZM117.681 195.522L128.555 191.817L127.588 188.978L116.713 192.682L117.681 195.522ZM142.98 204.817L117.846 192.75L116.548 195.454L141.682 207.522L142.98 204.817ZM169.864 178.054L149.452 156.068L147.254 158.109L167.665 180.095L169.864 178.054ZM147.8 200.585L169.785 180.174L167.744 177.975L145.758 198.386L147.8 200.585ZM125.268 178.521L145.68 200.506L147.878 198.465L127.467 176.479L125.268 178.521ZM147.333 155.989L125.347 176.401L127.388 178.599L149.374 158.188L147.333 155.989Z" fill="white"/>
</svg>
