<svg width="300" height="378" viewBox="0 0 300 378" fill="none" xmlns="http://www.w3.org/2000/svg">
<path fill-rule="evenodd" clip-rule="evenodd" d="M140 0H160V20H140V0ZM145 5H155V15H145V5ZM150.142 57.2843L136 43.1421L150.142 29L164.284 43.1421L150.142 57.2843ZM143.071 43.1421L150.142 36.0711L157.213 43.1421L150.142 50.2132L143.071 43.1421ZM160 66H140V86H160V66ZM155 71H145V81H155V71ZM65 102L148.252 237H0V240H149.519L65.0001 377.054H235L150.481 240H300V237H151.748L235 102H65ZM92.4844 138.75H207.215L226.19 108.219H73.5098L92.4844 138.75ZM226.49 370.835L150.15 248L73.8099 370.835H226.49Z" fill="white"/>
</svg>
